<?xml version="1.0" encoding="UTF-8"?>
<!DOCTYPE svg PUBLIC "-//W3C//DTD SVG 1.1//EN" "http://www.w3.org/Graphics/SVG/1.1/DTD/svg11.dtd">
<svg xmlns="http://www.w3.org/2000/svg" version="1.1" width="1280px" height="1280px" style="shape-rendering:geometricPrecision; text-rendering:geometricPrecision; image-rendering:optimizeQuality; fill-rule:evenodd; clip-rule:evenodd" xmlns:xlink="http://www.w3.org/1999/xlink">
<g><path style="opacity:0.031" fill="#aca3ca" d="M 416.5,45.5 C 419.755,45.0136 422.422,46.0136 424.5,48.5C 427.774,53.3897 430.774,58.3897 433.5,63.5C 432.167,62.5 430.833,61.5 429.5,60.5C 427.872,54.5424 424.206,50.5424 418.5,48.5C 418.218,47.2223 417.551,46.2223 416.5,45.5 Z"/></g>
<g><path style="opacity:0.596" fill="#6947d5" d="M 418.5,48.5 C 424.206,50.5424 427.872,54.5424 429.5,60.5C 425.668,58.1862 422.335,55.1862 419.5,51.5C 418.566,53.0948 418.566,54.7615 419.5,56.5C 417.974,55.5081 417.307,54.0081 417.5,52C 417.514,50.6153 417.848,49.4486 418.5,48.5 Z"/></g>
<g><path style="opacity:0.059" fill="#190f34" d="M 416.5,45.5 C 417.551,46.2223 418.218,47.2223 418.5,48.5C 417.848,49.4486 417.514,50.6153 417.5,52C 417.307,54.0081 417.974,55.5081 419.5,56.5C 422.587,64.4542 426.42,72.1208 431,79.5C 431.452,82.1494 432.286,84.6494 433.5,87C 432.944,87.3826 432.611,87.8826 432.5,88.5C 427.601,78.4146 422.435,68.4146 417,58.5C 415.963,55.7236 415.13,52.8902 414.5,50C 414.525,48.124 415.191,46.624 416.5,45.5 Z"/></g>
<g><path style="opacity:0.043" fill="#bdb3df" d="M 433.5,63.5 C 436.241,65.9754 438.241,68.9754 439.5,72.5C 438.13,72.1435 437.13,71.3102 436.5,70C 435.094,68.022 434.094,65.8553 433.5,63.5 Z"/></g>
<g><path style="opacity:0.843" fill="#220095" d="M 419.5,56.5 C 426.45,64.4713 431.784,73.4713 435.5,83.5C 436.323,86.4606 436.99,89.4606 437.5,92.5C 435.833,91.1667 434.167,89.8333 432.5,88.5C 432.611,87.8826 432.944,87.3826 433.5,87C 432.286,84.6494 431.452,82.1494 431,79.5C 426.42,72.1208 422.587,64.4542 419.5,56.5 Z"/></g>
<g><path style="opacity:0.188" fill="#9583c6" d="M 439.5,72.5 C 446.219,81.8912 452.552,91.5579 458.5,101.5C 458.5,102.167 458.5,102.833 458.5,103.5C 457.167,101.833 455.833,100.167 454.5,98.5C 449.452,91.4317 444.619,84.0984 440,76.5C 439.51,75.2068 439.343,73.8734 439.5,72.5 Z"/></g>
<g><path style="opacity:0.078" fill="#15043e" d="M 432.5,88.5 C 434.167,89.8333 435.833,91.1667 437.5,92.5C 439.555,96.3281 441.221,100.328 442.5,104.5C 442.5,106.167 442.5,107.833 442.5,109.5C 438.914,102.66 435.581,95.6598 432.5,88.5 Z"/></g>
<g><path style="opacity:0.584" fill="#5938c4" d="M 454.5,98.5 C 455.833,100.167 457.167,101.833 458.5,103.5C 460.263,106.02 462.263,108.353 464.5,110.5C 465.167,112.5 465.833,114.5 466.5,116.5C 461.026,111.573 457.026,105.573 454.5,98.5 Z"/></g>
<g><path style="opacity:0.027" fill="#b8b6c7" d="M 458.5,101.5 C 461.241,103.975 463.241,106.975 464.5,110.5C 462.263,108.353 460.263,106.02 458.5,103.5C 458.5,102.833 458.5,102.167 458.5,101.5 Z"/></g>
<g><path style="opacity:0.263" fill="#160166" d="M 442.5,104.5 C 445.912,108.984 448.578,113.984 450.5,119.5C 449.167,118.5 447.833,117.5 446.5,116.5C 445.951,114.099 445.118,111.765 444,109.5C 443.617,110.056 443.117,110.389 442.5,110.5C 442.5,110.167 442.5,109.833 442.5,109.5C 442.5,107.833 442.5,106.167 442.5,104.5 Z"/></g>
<g><path style="opacity:0.01" fill="#010013" d="M 446.5,116.5 C 444.808,114.795 443.475,112.795 442.5,110.5C 443.117,110.389 443.617,110.056 444,109.5C 445.118,111.765 445.951,114.099 446.5,116.5 Z"/></g>
<g><path style="opacity:0.184" fill="#9b8cc5" d="M 464.5,110.5 C 477.413,129.989 490.08,149.655 502.5,169.5C 500.292,168.106 498.792,166.106 498,163.5C 497.329,162.748 496.496,162.414 495.5,162.5C 485.867,147.189 476.2,131.856 466.5,116.5C 465.833,114.5 465.167,112.5 464.5,110.5 Z"/></g>
<g><path style="opacity:0.129" fill="#13043a" d="M 446.5,116.5 C 447.833,117.5 449.167,118.5 450.5,119.5C 457.96,136.529 465.627,153.529 473.5,170.5C 473.665,172.827 474.331,174.993 475.5,177C 475.272,177.399 474.938,177.565 474.5,177.5C 464.804,157.448 455.471,137.115 446.5,116.5 Z"/></g>
<g><path style="opacity:0.745" fill="#5834cb" d="M 495.5,162.5 C 496.496,162.414 497.329,162.748 498,163.5C 498.792,166.106 500.292,168.106 502.5,169.5C 502.629,171.216 502.962,172.883 503.5,174.5C 501.333,171.763 499,169.097 496.5,166.5C 495.571,165.311 495.238,163.978 495.5,162.5 Z"/></g>
<g><path style="opacity:0.992" fill="#5018fb" d="M 429.5,60.5 C 430.833,61.5 432.167,62.5 433.5,63.5C 434.094,65.8553 435.094,68.022 436.5,70C 437.13,71.3102 438.13,72.1435 439.5,72.5C 439.343,73.8734 439.51,75.2068 440,76.5C 444.619,84.0984 449.452,91.4317 454.5,98.5C 457.026,105.573 461.026,111.573 466.5,116.5C 476.2,131.856 485.867,147.189 495.5,162.5C 495.238,163.978 495.571,165.311 496.5,166.5C 499,169.097 501.333,171.763 503.5,174.5C 506.66,178.148 509.327,182.148 511.5,186.5C 514.856,192.703 518.023,199.037 521,205.5C 522.145,204.316 523.312,204.316 524.5,205.5C 524.343,206.873 524.51,208.207 525,209.5C 526.946,212.42 529.113,215.087 531.5,217.5C 532.219,219.764 532.552,222.097 532.5,224.5C 533.552,224.351 534.552,224.517 535.5,225C 537.72,227.713 539.72,230.546 541.5,233.5C 539.983,233.511 538.816,234.177 538,235.5C 534.241,232.571 531.408,228.905 529.5,224.5C 529.709,223.914 530.043,223.414 530.5,223C 527.863,221.04 525.197,219.04 522.5,217C 523.345,215.442 522.679,214.442 520.5,214C 520.833,213.667 521.167,213.333 521.5,213C 520.027,212.29 519.36,211.124 519.5,209.5C 518.178,209.33 517.011,209.663 516,210.5C 513.641,206.36 511.308,201.693 509,196.5C 502.775,187.84 496.275,178.174 489.5,167.5C 487.547,166.976 485.88,165.976 484.5,164.5C 473.371,145.938 462.871,126.605 453,106.5C 448.376,100.248 444.543,93.5809 441.5,86.5C 439.808,84.6414 438.308,82.6414 437,80.5C 436.517,81.448 436.351,82.448 436.5,83.5C 436.167,83.5 435.833,83.5 435.5,83.5C 431.784,73.4713 426.45,64.4713 419.5,56.5C 418.566,54.7615 418.566,53.0948 419.5,51.5C 422.335,55.1862 425.668,58.1862 429.5,60.5 Z"/></g>
<g><path style="opacity:0.999" fill="#3f03fe" d="M 541.5,233.5 C 540.418,234.594 539.752,235.927 539.5,237.5C 541.039,242.243 543.372,246.576 546.5,250.5C 546.167,251.167 545.833,251.833 545.5,252.5C 548.943,258.271 552.443,263.937 556,269.5C 556.333,269.167 556.667,268.833 557,268.5C 556.906,271.501 558.239,273.501 561,274.5C 561.483,275.448 561.649,276.448 561.5,277.5C 565.185,278.228 567.018,280.561 567,284.5C 568.63,287.298 570.463,289.965 572.5,292.5C 572.167,293.167 571.833,293.833 571.5,294.5C 573.684,298.275 576.017,301.942 578.5,305.5C 578.291,306.086 577.957,306.586 577.5,307C 578.759,307.923 580.092,308.757 581.5,309.5C 586.136,316.405 590.636,323.405 595,330.5C 599.812,333.463 602.979,337.297 604.5,342C 608.066,346.453 611.4,351.12 614.5,356C 614.167,356.333 613.833,356.667 613.5,357C 615.5,358 617.5,359 619.5,360C 618.465,361.507 618.632,363.007 620,364.5C 631.311,381.156 642.478,398.322 653.5,416C 656.678,421.969 661.678,428.469 668.5,435.5C 669.099,438.843 670.432,441.843 672.5,444.5C 673.274,445.711 674.107,445.711 675,444.5C 677.421,450.012 680.088,455.345 683,460.5C 685.304,462.068 687.804,463.235 690.5,464C 690.043,464.414 689.709,464.914 689.5,465.5C 690.59,471.007 693.256,475.673 697.5,479.5C 698.975,484.046 700.808,487.713 703,490.5C 703.903,491.701 705.069,492.535 706.5,493C 711.223,493.624 715.89,493.29 720.5,492C 723.02,488.614 726.187,486.114 730,484.5C 732.498,481.511 734.498,478.178 736,474.5C 738.109,473.965 738.609,472.965 737.5,471.5C 739.631,471.662 740.631,470.329 740.5,467.5C 741.552,467.649 742.552,467.483 743.5,467C 742.167,465.16 742.334,464.66 744,465.5C 744.51,462.995 746.01,461.495 748.5,461C 747.167,459.16 747.334,458.66 749,459.5C 750.758,458.531 751.258,457.364 750.5,456C 756.607,447.391 763.274,439.225 770.5,431.5C 772.671,428.495 774.171,425.161 775,421.5C 776.992,420.672 778.492,419.339 779.5,417.5C 780.428,415.401 781.928,413.734 784,412.5C 784.49,411.207 784.657,409.873 784.5,408.5C 785.552,408.649 786.552,408.483 787.5,408C 792.014,403.984 796.014,399.484 799.5,394.5C 799.5,396.5 799.5,398.5 799.5,400.5C 797.802,403.231 796.469,406.231 795.5,409.5C 796.045,475.685 796.212,543.685 796,613.5C 795.667,618.5 795.333,623.5 795,628.5C 794.5,629.5 794,630.5 793.5,631.5C 794.29,644.386 794.624,657.552 794.5,671C 794.697,676.962 794.03,682.795 792.5,688.5C 792.723,689.967 793.056,691.467 793.5,693C 792.196,693.804 791.529,694.971 791.5,696.5C 792.11,700.875 792.443,705.208 792.5,709.5C 789.997,737.823 789.33,765.823 790.5,793.5C 790.102,803.734 789.269,813.401 788,822.5C 786.74,819.641 785.24,816.974 783.5,814.5C 777.348,802.196 771.181,789.863 765,777.5C 764.667,775.5 764.333,773.5 764,771.5C 759.057,760.573 753.39,750.239 747,740.5C 741.263,725.79 735.43,711.123 729.5,696.5C 728.168,694.337 726.334,692.67 724,691.5C 720.926,683.157 717.26,675.157 713,667.5C 711.957,663.08 710.624,658.746 709,654.5C 707.333,653.267 705.833,651.933 704.5,650.5C 702.745,647.486 701.412,644.153 700.5,640.5C 697.259,632.01 693.426,623.677 689,615.5C 688.138,610.115 685.971,605.449 682.5,601.5C 679.324,595.478 676.824,589.144 675,582.5C 663.652,560.799 653.652,538.465 645,515.5C 643.579,512.991 641.912,510.657 640,508.5C 639.316,507.216 639.483,506.049 640.5,505C 638.34,503.668 636.34,502.168 634.5,500.5C 630.809,497.921 628.976,494.254 629,489.5C 628.059,487.228 626.726,485.228 625,483.5C 624.506,481.866 624.34,480.199 624.5,478.5C 623.844,474.636 622.844,470.803 621.5,467C 618.882,464.091 617.382,460.591 617,456.5C 613.583,448.498 609.749,440.665 605.5,433C 603.049,425.161 599.382,417.494 594.5,410C 594.833,409.667 595.167,409.333 595.5,409C 589.221,400.35 584.554,390.85 581.5,380.5C 581.709,379.914 582.043,379.414 582.5,379C 580.559,378.696 578.893,377.863 577.5,376.5C 571.315,359.138 563.815,342.472 555,326.5C 553.907,320.951 551.407,316.284 547.5,312.5C 547.021,309.936 546.355,307.436 545.5,305C 546.821,303.455 546.488,302.289 544.5,301.5C 543.604,298.856 542.771,296.19 542,293.5C 539.891,292.965 539.391,291.965 540.5,290.5C 538.957,287.914 537.291,285.414 535.5,283C 535.738,280.438 534.738,278.104 532.5,276C 533.552,274.284 532.886,273.284 530.5,273C 530.957,272.586 531.291,272.086 531.5,271.5C 524.23,258.625 517.73,245.292 512,231.5C 506.801,226.625 503.801,220.625 503,213.5C 502.329,212.748 501.496,212.414 500.5,212.5C 499.068,210.575 497.568,208.575 496,206.5C 495.474,202.338 494.474,198.338 493,194.5C 491.458,190.914 489.625,187.581 487.5,184.5C 487.551,178.763 485.718,173.763 482,169.5C 480.426,164.961 477.759,160.961 474,157.5C 471.113,148.96 467.779,140.627 464,132.5C 462.301,129.079 460.135,126.079 457.5,123.5C 454.831,114.497 450.331,106.497 444,99.5C 441.794,93.9675 439.294,88.6342 436.5,83.5C 436.351,82.448 436.517,81.448 437,80.5C 438.308,82.6414 439.808,84.6414 441.5,86.5C 444.543,93.5809 448.376,100.248 453,106.5C 462.871,126.605 473.371,145.938 484.5,164.5C 485.88,165.976 487.547,166.976 489.5,167.5C 496.275,178.174 502.775,187.84 509,196.5C 511.308,201.693 513.641,206.36 516,210.5C 517.011,209.663 518.178,209.33 519.5,209.5C 519.36,211.124 520.027,212.29 521.5,213C 521.167,213.333 520.833,213.667 520.5,214C 522.679,214.442 523.345,215.442 522.5,217C 525.197,219.04 527.863,221.04 530.5,223C 530.043,223.414 529.709,223.914 529.5,224.5C 531.408,228.905 534.241,232.571 538,235.5C 538.816,234.177 539.983,233.511 541.5,233.5 Z"/></g>
<g><path style="opacity:0.992" fill="#3200da" d="M 457.5,123.5 C 460.135,126.079 462.301,129.079 464,132.5C 467.779,140.627 471.113,148.96 474,157.5C 477.759,160.961 480.426,164.961 482,169.5C 485.718,173.763 487.551,178.763 487.5,184.5C 486.017,182.906 484.517,181.24 483,179.5C 479.149,170.633 474.816,161.966 470,153.5C 466.092,143.355 461.925,133.355 457.5,123.5 Z"/></g>
<g><path style="opacity:0.149" fill="#9b8bc7" d="M 502.5,169.5 C 508.673,176.352 513.673,184.018 517.5,192.5C 516.527,192.013 515.527,191.513 514.5,191C 513.947,189.122 512.947,187.622 511.5,186.5C 509.327,182.148 506.66,178.148 503.5,174.5C 502.962,172.883 502.629,171.216 502.5,169.5 Z"/></g>
<g><path style="opacity:0.651" fill="#1c007f" d="M 473.5,170.5 C 476.738,176.59 480.238,182.59 484,188.5C 484.634,194.1 486.967,198.766 491,202.5C 492.949,206.629 494.116,210.963 494.5,215.5C 488.363,204.654 482.863,193.321 478,181.5C 477.241,179.937 476.074,178.937 474.5,178.5C 474.5,178.167 474.5,177.833 474.5,177.5C 474.938,177.565 475.272,177.399 475.5,177C 474.331,174.993 473.665,172.827 473.5,170.5 Z"/></g>
<g><path style="opacity:0.006" fill="#cac7d5" d="M 517.5,192.5 C 519.522,194.531 521.189,196.865 522.5,199.5C 519.736,198.052 518.069,195.719 517.5,192.5 Z"/></g>
<g><path style="opacity:0.012" fill="#c2bccf" d="M 522.5,199.5 C 524.664,201.822 526.331,204.489 527.5,207.5C 526.5,206.833 525.5,206.167 524.5,205.5C 523.37,203.685 522.704,201.685 522.5,199.5 Z"/></g>
<g><path style="opacity:0.808" fill="#5a36ce" d="M 511.5,186.5 C 512.947,187.622 513.947,189.122 514.5,191C 515.527,191.513 516.527,192.013 517.5,192.5C 518.069,195.719 519.736,198.052 522.5,199.5C 522.704,201.685 523.37,203.685 524.5,205.5C 523.312,204.316 522.145,204.316 521,205.5C 518.023,199.037 514.856,192.703 511.5,186.5 Z"/></g>
<g><path style="opacity:0.039" fill="#a59db9" d="M 527.5,207.5 C 529.822,208.802 531.155,210.802 531.5,213.5C 529.178,212.198 527.845,210.198 527.5,207.5 Z"/></g>
<g><path style="opacity:0.514" fill="#5937c8" d="M 524.5,205.5 C 525.5,206.167 526.5,206.833 527.5,207.5C 527.845,210.198 529.178,212.198 531.5,213.5C 531.5,214.833 531.5,216.167 531.5,217.5C 529.113,215.087 526.946,212.42 525,209.5C 524.51,208.207 524.343,206.873 524.5,205.5 Z"/></g>
<g><path style="opacity:0.031" fill="#b3aad4" d="M 531.5,213.5 C 534.277,215.951 536.277,218.951 537.5,222.5C 536.135,220.14 534.135,218.473 531.5,217.5C 531.5,216.167 531.5,214.833 531.5,213.5 Z"/></g>
<g><path style="opacity:0.9" fill="#5a33d6" d="M 531.5,217.5 C 534.135,218.473 536.135,220.14 537.5,222.5C 538.433,225.37 540.1,227.704 542.5,229.5C 542.5,230.833 542.5,232.167 542.5,233.5C 542.167,233.5 541.833,233.5 541.5,233.5C 539.72,230.546 537.72,227.713 535.5,225C 534.552,224.517 533.552,224.351 532.5,224.5C 532.552,222.097 532.219,219.764 531.5,217.5 Z"/></g>
<g><path style="opacity:0.137" fill="#120234" d="M 474.5,178.5 C 476.074,178.937 477.241,179.937 478,181.5C 482.863,193.321 488.363,204.654 494.5,215.5C 497.462,221.424 500.462,227.424 503.5,233.5C 504.059,235.679 504.726,237.846 505.5,240C 505.43,240.765 505.097,241.265 504.5,241.5C 494.74,220.317 484.74,199.317 474.5,178.5 Z"/></g>
<g><path style="opacity:0.031" fill="#cfcee3" d="M 537.5,222.5 C 539.9,224.296 541.567,226.63 542.5,229.5C 540.1,227.704 538.433,225.37 537.5,222.5 Z"/></g>
<g><path style="opacity:0.482" fill="#5838c0" d="M 544.5,236.5 C 547.5,238.833 550.167,241.5 552.5,244.5C 552.5,245.833 552.5,247.167 552.5,248.5C 548.844,245.197 546.178,241.197 544.5,236.5 Z"/></g>
<g><path style="opacity:0.992" fill="#3300dc" d="M 500.5,212.5 C 501.496,212.414 502.329,212.748 503,213.5C 503.801,220.625 506.801,226.625 512,231.5C 517.73,245.292 524.23,258.625 531.5,271.5C 531.291,272.086 530.957,272.586 530.5,273C 532.886,273.284 533.552,274.284 532.5,276C 534.738,278.104 535.738,280.438 535.5,283C 537.291,285.414 538.957,287.914 540.5,290.5C 539.391,291.965 539.891,292.965 542,293.5C 542.771,296.19 543.604,298.856 544.5,301.5C 546.488,302.289 546.821,303.455 545.5,305C 546.355,307.436 547.021,309.936 547.5,312.5C 541.497,304.824 537.33,296.157 535,286.5C 534.075,285.953 533.242,285.287 532.5,284.5C 522.875,263.589 513.042,242.922 503,222.5C 501.443,219.334 500.61,216 500.5,212.5 Z"/></g>
<g><path style="opacity:0.031" fill="#aba5c1" d="M 542.5,229.5 C 546.575,233.976 549.908,238.976 552.5,244.5C 550.167,241.5 547.5,238.833 544.5,236.5C 544.573,234.973 543.906,233.973 542.5,233.5C 542.5,232.167 542.5,230.833 542.5,229.5 Z"/></g>
<g><path style="opacity:0.329" fill="#15035e" d="M 503.5,233.5 C 506.03,238.888 508.863,244.222 512,249.5C 513.295,253.215 514.462,256.882 515.5,260.5C 513.186,257.205 511.352,253.538 510,249.5C 509.292,248.619 508.458,247.953 507.5,247.5C 505.992,245.819 504.992,243.819 504.5,241.5C 505.097,241.265 505.43,240.765 505.5,240C 504.726,237.846 504.059,235.679 503.5,233.5 Z"/></g>
<g><path style="opacity:0.024" fill="#08001c" d="M 507.5,247.5 C 508.458,247.953 509.292,248.619 510,249.5C 511.352,253.538 513.186,257.205 515.5,260.5C 515.833,262.5 516.167,264.5 516.5,266.5C 513.28,260.388 510.28,254.054 507.5,247.5 Z"/></g>
<g><path style="opacity:0.006" fill="#c3c1d2" d="M 559.5,255.5 C 562.264,256.948 563.931,259.281 564.5,262.5C 562.543,260.517 560.877,258.183 559.5,255.5 Z"/></g>
<g><path style="opacity:0.18" fill="#7f67c3" d="M 552.5,244.5 C 555.579,247.65 557.913,251.317 559.5,255.5C 560.877,258.183 562.543,260.517 564.5,262.5C 564.5,263.833 564.5,265.167 564.5,266.5C 560.897,260.231 556.897,254.231 552.5,248.5C 552.5,247.167 552.5,245.833 552.5,244.5 Z"/></g>
<g><path style="opacity:0.157" fill="#9a8dc1" d="M 564.5,262.5 C 570.274,269.28 575.274,276.613 579.5,284.5C 578.5,283.833 577.5,283.167 576.5,282.5C 572.975,276.77 568.975,271.437 564.5,266.5C 564.5,265.167 564.5,263.833 564.5,262.5 Z"/></g>
<g><path style="opacity:0.361" fill="#7960be" d="M 576.5,282.5 C 577.5,283.167 578.5,283.833 579.5,284.5C 581.316,286.118 582.649,288.118 583.5,290.5C 583.5,291.833 583.5,293.167 583.5,294.5C 580.344,291.004 578.011,287.004 576.5,282.5 Z"/></g>
<g><path style="opacity:0.145" fill="#13033a" d="M 515.5,260.5 C 522.738,273.312 529.238,286.646 535,300.5C 535.78,302.387 535.613,304.054 534.5,305.5C 528.239,292.644 522.239,279.644 516.5,266.5C 516.167,264.5 515.833,262.5 515.5,260.5 Z"/></g>
<g><path style="opacity:0.031" fill="#9e93c7" d="M 583.5,290.5 C 591.526,301.873 599.193,313.54 606.5,325.5C 606.5,326.5 606.5,327.5 606.5,328.5C 599.789,317.434 592.789,306.434 585.5,295.5C 585.043,294.702 584.376,294.369 583.5,294.5C 583.5,293.167 583.5,291.833 583.5,290.5 Z"/></g>
<g><path style="opacity:0.02" fill="#14012a" d="M 534.5,306.5 C 535.5,306.5 536.5,306.5 537.5,306.5C 539.125,312.538 541.625,318.205 545,323.5C 545.943,326.824 546.776,330.157 547.5,333.5C 542.996,324.694 538.662,315.694 534.5,306.5 Z"/></g>
<g><path style="opacity:0.016" fill="#b9b7c9" d="M 606.5,325.5 C 609.241,327.975 611.241,330.975 612.5,334.5C 611.5,333.833 610.5,333.167 609.5,332.5C 609.446,330.368 608.446,329.035 606.5,328.5C 606.5,327.5 606.5,326.5 606.5,325.5 Z"/></g>
<g><path style="opacity:0.043" fill="#9a91bc" d="M 609.5,332.5 C 610.5,333.167 611.5,333.833 612.5,334.5C 619.66,344.148 626.327,354.148 632.5,364.5C 626.971,358.558 621.971,352.224 617.5,345.5C 614.833,341.167 612.167,336.833 609.5,332.5 Z"/></g>
<g><path style="opacity:0.486" fill="#5836c6" d="M 617.5,345.5 C 621.971,352.224 626.971,358.558 632.5,364.5C 632.5,365.833 632.5,367.167 632.5,368.5C 629.115,363.282 625.282,358.282 621,353.5C 619.098,351.116 617.931,348.449 617.5,345.5 Z"/></g>
<g><path style="opacity:0.016" fill="#9e93c0" d="M 632.5,364.5 C 638.316,372.119 643.65,380.119 648.5,388.5C 646.629,388.141 645.129,387.141 644,385.5C 641.347,380.865 638.681,376.199 636,371.5C 634.961,370.29 633.794,369.29 632.5,368.5C 632.5,367.167 632.5,365.833 632.5,364.5 Z"/></g>
<g><path style="opacity:0.137" fill="#120335" d="M 547.5,333.5 C 550.897,338.77 554.397,344.103 558,349.5C 559.683,354.549 561.35,359.549 563,364.5C 564.028,367.886 566.028,370.552 569,372.5C 569.922,375.991 571.089,379.325 572.5,382.5C 573.577,385.307 574.577,388.14 575.5,391C 575.272,391.399 574.938,391.565 574.5,391.5C 564.741,372.572 555.741,353.239 547.5,333.5 Z"/></g>
<g><path style="opacity:0.011" fill="#ccc7d8" d="M 803.5,397.5 C 803.02,394.922 802.02,392.588 800.5,390.5C 798.372,389.371 796.039,389.204 793.5,390C 790.509,392.831 787.509,395.665 784.5,398.5C 786.833,394.282 789.833,390.449 793.5,387C 802.007,385.342 805.34,388.842 803.5,397.5 Z"/></g>
<g><path style="opacity:0.011" fill="#c7d0d0" d="M 475.5,396.5 C 474.833,396.167 474.167,395.833 473.5,395.5C 472.791,394.596 471.791,394.263 470.5,394.5C 470.5,393.5 470.5,392.5 470.5,391.5C 468.876,391.64 467.71,390.973 467,389.5C 466.005,390.066 465.172,390.733 464.5,391.5C 463.833,391.833 463.167,392.167 462.5,392.5C 463.128,389.045 465.128,387.878 468.5,389C 471.739,390.736 474.073,393.236 475.5,396.5 Z"/></g>
<g><path style="opacity:0.838" fill="#68f7fd" d="M 473.5,395.5 C 471.952,395.821 471.285,396.821 471.5,398.5C 471.785,400.288 471.452,401.955 470.5,403.5C 469.165,401.799 467.832,400.132 466.5,398.5C 466.795,396.265 466.461,394.265 465.5,392.5C 465.167,392.5 464.833,392.5 464.5,392.5C 464.5,392.167 464.5,391.833 464.5,391.5C 465.172,390.733 466.005,390.066 467,389.5C 467.71,390.973 468.876,391.64 470.5,391.5C 470.5,392.5 470.5,393.5 470.5,394.5C 471.791,394.263 472.791,394.596 473.5,395.5 Z"/></g>
<g><path style="opacity:0.075" fill="#8e82b4" d="M 648.5,389.5 C 652.849,394.197 656.182,399.53 658.5,405.5C 657.167,403.833 655.833,402.167 654.5,400.5C 651.192,397.55 649.192,393.884 648.5,389.5 Z"/></g>
<g><path style="opacity:0.063" fill="#0f0024" d="M 574.5,392.5 C 579.632,394.762 581.632,398.762 580.5,404.5C 577.99,400.813 575.99,396.813 574.5,392.5 Z"/></g>
<g><path style="opacity:0.016" fill="#cdc6e9" d="M 784.5,398.5 C 783.345,402.332 781.012,405.332 777.5,407.5C 779.458,404.208 781.791,401.208 784.5,398.5 Z"/></g>
<g><path style="opacity:0.994" fill="#03cbfe" d="M 465.5,392.5 C 466.461,394.265 466.795,396.265 466.5,398.5C 471.077,418.063 478.077,436.23 487.5,453C 495.385,471.613 504.385,490.113 514.5,508.5C 514.167,509.833 513.833,511.167 513.5,512.5C 513.846,513.696 514.346,513.696 515,512.5C 516.495,514.11 516.661,515.776 515.5,517.5C 516.5,518.167 517.5,518.833 518.5,519.5C 518.291,520.086 517.957,520.586 517.5,521C 520.426,522.507 522.426,524.841 523.5,528C 522.692,528.308 522.025,528.808 521.5,529.5C 522.603,529.998 523.603,530.331 524.5,530.5C 523.374,532.95 524.041,534.95 526.5,536.5C 526.291,537.086 525.957,537.586 525.5,538C 529.616,539.418 529.949,540.752 526.5,542C 527.536,543.617 528.703,543.784 530,542.5C 536.875,557.228 543.542,570.894 550,583.5C 557.088,598.482 563.921,612.648 570.5,626C 570.043,626.414 569.709,626.914 569.5,627.5C 572.888,630.597 575.555,634.264 577.5,638.5C 576.098,639.842 576.431,640.676 578.5,641C 578.167,641.333 577.833,641.667 577.5,642C 579.628,645.755 581.628,649.588 583.5,653.5C 586.171,658.556 589.171,664.056 592.5,670C 591.366,671.016 591.699,671.683 593.5,672C 592.833,672.667 592.167,673.333 591.5,674C 593.333,675.167 594.833,676.667 596,678.5C 606.715,701.532 617.881,724.198 629.5,746.5C 638.327,767.493 648.327,788.16 659.5,808.5C 659.291,809.086 658.957,809.586 658.5,810C 661.96,815.752 665.293,821.585 668.5,827.5C 668.291,828.086 667.957,828.586 667.5,829C 671.613,836.054 675.613,843.221 679.5,850.5C 679.291,851.086 678.957,851.586 678.5,852C 682.529,859.067 686.529,866.067 690.5,873C 695.938,885.726 702.605,899.226 710.5,913.5C 709.391,914.965 709.891,915.965 712,916.5C 718.486,931.816 725.986,947.149 734.5,962.5C 753.206,1004.55 775.039,1047.55 800,1091.5C 801.019,1092.69 802.186,1093.69 803.5,1094.5C 806.234,1100.87 808.901,1107.2 811.5,1113.5C 810.624,1113.63 809.957,1113.3 809.5,1112.5C 807.229,1106.61 804.229,1101.28 800.5,1096.5C 794.856,1086.66 789.356,1076.66 784,1066.5C 774.762,1054.5 766.429,1041.84 759,1028.5C 755.913,1024.29 752.58,1020.29 749,1016.5C 744.355,1008.03 739.522,999.697 734.5,991.5C 733.5,991.5 732.5,991.5 731.5,991.5C 728.678,984.568 724.345,978.568 718.5,973.5C 715.986,969.135 713.486,964.801 711,960.5C 710.329,959.748 709.496,959.414 708.5,959.5C 707.357,959.092 706.357,958.425 705.5,957.5C 701.982,950.464 697.482,944.13 692,938.5C 688.571,930.633 683.905,923.633 678,917.5C 673.962,909.093 669.629,900.76 665,892.5C 661.428,887.973 657.428,883.973 653,880.5C 652.598,879.128 652.098,877.795 651.5,876.5C 643.856,867.225 636.69,857.558 630,847.5C 628.931,843.028 626.597,839.361 623,836.5C 619.267,829.369 615.267,822.369 611,815.5C 604.522,810.533 600.022,804.2 597.5,796.5C 593.929,791.268 591.096,785.602 589,779.5C 586.09,775.584 582.757,771.917 579,768.5C 573.37,758.973 567.37,749.64 561,740.5C 556.266,736.693 551.099,735.86 545.5,738C 531.384,750.788 519.551,765.288 510,781.5C 508.179,784.149 505.679,785.816 502.5,786.5C 500.857,788.977 499.024,791.31 497,793.5C 495.334,792.66 495.167,793.16 496.5,795C 493.311,797.692 490.644,800.859 488.5,804.5C 486.918,806.585 484.918,808.085 482.5,809C 483.517,810.049 483.684,811.216 483,812.5C 479.746,819.572 475.08,825.572 469,830.5C 467.164,829.331 465.998,827.664 465.5,825.5C 467.186,813.88 468.519,802.213 469.5,790.5C 468.653,788.939 468.986,787.439 470.5,786C 469.823,765.32 469.489,744.653 469.5,724C 470.167,717 470.833,710 471.5,703C 471.366,694.949 471.032,687.115 470.5,679.5C 471.025,678.808 471.692,678.308 472.5,678C 471.643,677.311 470.977,676.478 470.5,675.5C 470.974,673.009 470.974,670.343 470.5,667.5C 470.401,664.001 471.068,660.668 472.5,657.5C 472.321,646.623 471.987,635.79 471.5,625C 472.179,615.864 472.846,606.697 473.5,597.5C 472.167,590.5 472.167,583.5 473.5,576.5C 472.441,573.765 471.775,570.931 471.5,568C 471.921,558.351 471.921,548.684 471.5,539C 472.199,535.2 472.865,531.367 473.5,527.5C 473.087,518.58 473.087,509.747 473.5,501C 472.833,495 472.167,489 471.5,483C 471.531,472.297 471.864,461.63 472.5,451C 471.833,450.333 471.167,449.667 470.5,449C 470.418,440.843 470.418,432.676 470.5,424.5C 469.192,417.268 467.526,410.268 465.5,403.5C 465.5,399.833 465.5,396.167 465.5,392.5 Z"/></g>
<g><path style="opacity:0.992" fill="#0ed1fc" d="M 466.5,398.5 C 467.832,400.132 469.165,401.799 470.5,403.5C 471.452,401.955 471.785,400.288 471.5,398.5C 474.702,406.609 477.702,414.942 480.5,423.5C 485.23,430.293 488.897,437.627 491.5,445.5C 488.956,448.053 488.956,450.553 491.5,453C 491.167,453.333 490.833,453.667 490.5,454C 490.982,455.46 492.149,456.96 494,458.5C 495.895,456.39 497.728,456.723 499.5,459.5C 506.255,474.185 512.922,489.019 519.5,504C 522.296,507.088 524.463,510.588 526,514.5C 529.549,522.271 532.549,530.271 535,538.5C 535.333,538.167 535.667,537.833 536,537.5C 538.595,542.209 540.428,547.209 541.5,552.5C 542.5,552.5 543.5,552.5 544.5,552.5C 545.167,557.168 547.167,561.168 550.5,564.5C 551.333,567.5 552.167,570.5 553,573.5C 559.122,580.411 563.122,588.411 565,597.5C 568.248,605.491 572.248,613.158 577,620.5C 579.483,630.18 583.816,638.18 590,644.5C 591.572,648.437 593.405,652.104 595.5,655.5C 596.672,659.093 598.839,662.093 602,664.5C 604.699,671.883 607.365,679.216 610,686.5C 615.097,695.12 619.43,704.12 623,713.5C 624.667,714.5 626,715.833 627,717.5C 629.047,722.059 630.88,726.726 632.5,731.5C 643.336,758.332 655.336,784.666 668.5,810.5C 668.957,811.298 669.624,811.631 670.5,811.5C 674.418,815.731 676.918,820.731 678,826.5C 686.266,841.367 693.766,856.7 700.5,872.5C 702.606,874.269 704.272,876.435 705.5,879C 713.406,896.097 721.239,913.264 729,930.5C 736.094,944.357 743.427,958.024 751,971.5C 752.734,978.42 755.234,985.086 758.5,991.5C 762.065,997.627 765.398,1003.96 768.5,1010.5C 769.242,1011.29 770.075,1011.95 771,1012.5C 774.594,1021.07 778.594,1029.41 783,1037.5C 783.383,1036.94 783.883,1036.61 784.5,1036.5C 784.5,1036.83 784.5,1037.17 784.5,1037.5C 786.1,1045.47 788.6,1053.13 792,1060.5C 797.416,1069.33 801.75,1078.67 805,1088.5C 805.98,1089.98 807.147,1091.31 808.5,1092.5C 809.009,1095.46 810.009,1098.13 811.5,1100.5C 812.022,1104.99 813.022,1109.32 814.5,1113.5C 813.5,1113.5 812.5,1113.5 811.5,1113.5C 808.901,1107.2 806.234,1100.87 803.5,1094.5C 802.186,1093.69 801.019,1092.69 800,1091.5C 775.039,1047.55 753.206,1004.55 734.5,962.5C 725.986,947.149 718.486,931.816 712,916.5C 709.891,915.965 709.391,914.965 710.5,913.5C 702.605,899.226 695.938,885.726 690.5,873C 686.529,866.067 682.529,859.067 678.5,852C 678.957,851.586 679.291,851.086 679.5,850.5C 675.613,843.221 671.613,836.054 667.5,829C 667.957,828.586 668.291,828.086 668.5,827.5C 665.293,821.585 661.96,815.752 658.5,810C 658.957,809.586 659.291,809.086 659.5,808.5C 648.327,788.16 638.327,767.493 629.5,746.5C 617.881,724.198 606.715,701.532 596,678.5C 594.833,676.667 593.333,675.167 591.5,674C 592.167,673.333 592.833,672.667 593.5,672C 591.699,671.683 591.366,671.016 592.5,670C 589.171,664.056 586.171,658.556 583.5,653.5C 581.628,649.588 579.628,645.755 577.5,642C 577.833,641.667 578.167,641.333 578.5,641C 576.431,640.676 576.098,639.842 577.5,638.5C 575.555,634.264 572.888,630.597 569.5,627.5C 569.709,626.914 570.043,626.414 570.5,626C 563.921,612.648 557.088,598.482 550,583.5C 543.542,570.894 536.875,557.228 530,542.5C 528.703,543.784 527.536,543.617 526.5,542C 529.949,540.752 529.616,539.418 525.5,538C 525.957,537.586 526.291,537.086 526.5,536.5C 524.041,534.95 523.374,532.95 524.5,530.5C 523.603,530.331 522.603,529.998 521.5,529.5C 522.025,528.808 522.692,528.308 523.5,528C 522.426,524.841 520.426,522.507 517.5,521C 517.957,520.586 518.291,520.086 518.5,519.5C 517.5,518.833 516.5,518.167 515.5,517.5C 516.661,515.776 516.495,514.11 515,512.5C 514.346,513.696 513.846,513.696 513.5,512.5C 513.833,511.167 514.167,509.833 514.5,508.5C 504.385,490.113 495.385,471.613 487.5,453C 478.077,436.23 471.077,418.063 466.5,398.5 Z"/></g>
<g><path style="opacity:0.337" fill="#5538b4" d="M 654.5,400.5 C 655.833,402.167 657.167,403.833 658.5,405.5C 658.5,406.833 658.5,408.167 658.5,409.5C 655.835,407.165 654.502,404.165 654.5,400.5 Z"/></g>
<g><path style="opacity:0.055" fill="#0c0021" d="M 580.5,404.5 C 581.458,404.953 582.292,405.619 583,406.5C 583.642,408.762 584.475,410.929 585.5,413C 585.272,413.399 584.938,413.565 584.5,413.5C 582.796,410.744 581.463,407.744 580.5,404.5 Z"/></g>
<g><path style="opacity:0.983" fill="#602afa" d="M 799.5,391.5 C 799.5,392.5 799.5,393.5 799.5,394.5C 796.014,399.484 792.014,403.984 787.5,408C 786.552,408.483 785.552,408.649 784.5,408.5C 784.657,409.873 784.49,411.207 784,412.5C 781.928,413.734 780.428,415.401 779.5,417.5C 777.983,417.489 776.816,416.823 776,415.5C 775.667,416.833 775.333,418.167 775,419.5C 774.107,418.289 773.274,418.289 772.5,419.5C 772.694,421.403 772.694,423.237 772.5,425C 771.552,425.483 770.552,425.649 769.5,425.5C 769.5,427.167 769.5,428.833 769.5,430.5C 768.5,430.5 767.5,430.5 766.5,430.5C 765.491,435.134 762.491,437.634 757.5,438C 756.683,440.372 755.35,440.872 753.5,439.5C 754.341,437.488 755.841,436.155 758,435.5C 758.41,434.099 758.91,432.766 759.5,431.5C 763.18,427.817 766.514,423.817 769.5,419.5C 771.994,417.201 774.494,414.867 777,412.5C 782.053,406.287 786.887,399.954 791.5,393.5C 794.08,392.451 796.746,391.784 799.5,391.5 Z"/></g>
<g><path style="opacity:0.992" fill="#3300dd" d="M 547.5,312.5 C 551.407,316.284 553.907,320.951 555,326.5C 563.815,342.472 571.315,359.138 577.5,376.5C 578.893,377.863 580.559,378.696 582.5,379C 582.043,379.414 581.709,379.914 581.5,380.5C 584.554,390.85 589.221,400.35 595.5,409C 595.167,409.333 594.833,409.667 594.5,410C 599.382,417.494 603.049,425.161 605.5,433C 609.749,440.665 613.583,448.498 617,456.5C 617.382,460.591 618.882,464.091 621.5,467C 622.844,470.803 623.844,474.636 624.5,478.5C 623.034,476.323 621.367,474.156 619.5,472C 613.433,455.939 606.266,440.439 598,425.5C 595.377,419.411 593.377,413.078 592,406.5C 582.78,392.883 575.447,378.217 570,362.5C 563.022,349.542 556.356,336.542 550,323.5C 549.591,319.703 548.758,316.036 547.5,312.5 Z"/></g>
<g><path style="opacity:0.298" fill="#8a71d5" d="M 800.5,390.5 C 800.5,390.833 800.5,391.167 800.5,391.5C 800.167,391.5 799.833,391.5 799.5,391.5C 796.746,391.784 794.08,392.451 791.5,393.5C 786.887,399.954 782.053,406.287 777,412.5C 774.494,414.867 771.994,417.201 769.5,419.5C 770.5,417.5 771.5,415.5 772.5,413.5C 773.701,411.091 775.367,409.091 777.5,407.5C 781.012,405.332 783.345,402.332 784.5,398.5C 787.509,395.665 790.509,392.831 793.5,390C 796.039,389.204 798.372,389.371 800.5,390.5 Z"/></g>
<g><path style="opacity:0.992" fill="#5119fb" d="M 541.5,233.5 C 541.833,233.5 542.167,233.5 542.5,233.5C 543.906,233.973 544.573,234.973 544.5,236.5C 546.178,241.197 548.844,245.197 552.5,248.5C 556.897,254.231 560.897,260.231 564.5,266.5C 568.975,271.437 572.975,276.77 576.5,282.5C 578.011,287.004 580.344,291.004 583.5,294.5C 584.376,294.369 585.043,294.702 585.5,295.5C 592.789,306.434 599.789,317.434 606.5,328.5C 608.446,329.035 609.446,330.368 609.5,332.5C 612.167,336.833 614.833,341.167 617.5,345.5C 617.931,348.449 619.098,351.116 621,353.5C 625.282,358.282 629.115,363.282 632.5,368.5C 633.794,369.29 634.961,370.29 636,371.5C 638.681,376.199 641.347,380.865 644,385.5C 645.129,387.141 646.629,388.141 648.5,388.5C 648.5,388.833 648.5,389.167 648.5,389.5C 649.192,393.884 651.192,397.55 654.5,400.5C 654.502,404.165 655.835,407.165 658.5,409.5C 659.932,411.327 661.599,412.994 663.5,414.5C 670.136,425.417 677.136,436.084 684.5,446.5C 684.701,450.13 686.368,452.797 689.5,454.5C 691.435,458.707 694.102,462.373 697.5,465.5C 697.343,466.873 697.51,468.207 698,469.5C 700.105,474.728 702.938,479.395 706.5,483.5C 707.468,485.607 707.802,487.941 707.5,490.5C 716.902,492.4 721.902,488.733 722.5,479.5C 723.758,480.016 724.758,479.35 725.5,477.5C 725.291,476.914 724.957,476.414 724.5,476C 731.195,475.46 735.529,471.96 737.5,465.5C 739.143,465.52 740.476,464.853 741.5,463.5C 745.228,457.041 749.395,451.707 754,447.5C 754.177,444.817 754.011,442.15 753.5,439.5C 755.35,440.872 756.683,440.372 757.5,438C 762.491,437.634 765.491,435.134 766.5,430.5C 767.5,430.5 768.5,430.5 769.5,430.5C 769.5,428.833 769.5,427.167 769.5,425.5C 770.552,425.649 771.552,425.483 772.5,425C 772.694,423.237 772.694,421.403 772.5,419.5C 773.274,418.289 774.107,418.289 775,419.5C 775.333,418.167 775.667,416.833 776,415.5C 776.816,416.823 777.983,417.489 779.5,417.5C 778.492,419.339 776.992,420.672 775,421.5C 774.171,425.161 772.671,428.495 770.5,431.5C 763.274,439.225 756.607,447.391 750.5,456C 751.258,457.364 750.758,458.531 749,459.5C 747.334,458.66 747.167,459.16 748.5,461C 746.01,461.495 744.51,462.995 744,465.5C 742.334,464.66 742.167,465.16 743.5,467C 742.552,467.483 741.552,467.649 740.5,467.5C 740.631,470.329 739.631,471.662 737.5,471.5C 738.609,472.965 738.109,473.965 736,474.5C 734.498,478.178 732.498,481.511 730,484.5C 726.187,486.114 723.02,488.614 720.5,492C 715.89,493.29 711.223,493.624 706.5,493C 705.069,492.535 703.903,491.701 703,490.5C 700.808,487.713 698.975,484.046 697.5,479.5C 693.256,475.673 690.59,471.007 689.5,465.5C 689.709,464.914 690.043,464.414 690.5,464C 687.804,463.235 685.304,462.068 683,460.5C 680.088,455.345 677.421,450.012 675,444.5C 674.107,445.711 673.274,445.711 672.5,444.5C 670.432,441.843 669.099,438.843 668.5,435.5C 661.678,428.469 656.678,421.969 653.5,416C 642.478,398.322 631.311,381.156 620,364.5C 618.632,363.007 618.465,361.507 619.5,360C 617.5,359 615.5,358 613.5,357C 613.833,356.667 614.167,356.333 614.5,356C 611.4,351.12 608.066,346.453 604.5,342C 602.979,337.297 599.812,333.463 595,330.5C 590.636,323.405 586.136,316.405 581.5,309.5C 580.092,308.757 578.759,307.923 577.5,307C 577.957,306.586 578.291,306.086 578.5,305.5C 576.017,301.942 573.684,298.275 571.5,294.5C 571.833,293.833 572.167,293.167 572.5,292.5C 570.463,289.965 568.63,287.298 567,284.5C 567.018,280.561 565.185,278.228 561.5,277.5C 561.649,276.448 561.483,275.448 561,274.5C 558.239,273.501 556.906,271.501 557,268.5C 556.667,268.833 556.333,269.167 556,269.5C 552.443,263.937 548.943,258.271 545.5,252.5C 545.833,251.833 546.167,251.167 546.5,250.5C 543.372,246.576 541.039,242.243 539.5,237.5C 539.752,235.927 540.418,234.594 541.5,233.5 Z"/></g>
<g><path style="opacity:0.027" fill="#bfb7dc" d="M 772.5,413.5 C 771.5,415.5 770.5,417.5 769.5,419.5C 766.514,423.817 763.18,427.817 759.5,431.5C 757.646,432.241 755.979,433.241 754.5,434.5C 760.265,427.305 766.265,420.305 772.5,413.5 Z"/></g>
<g><path style="opacity:0.784" fill="#1c007d" d="M 572.5,382.5 C 578.46,390.092 582.627,398.759 585,408.5C 586.011,409.337 587.178,409.67 588.5,409.5C 588.896,414.201 590.73,418.201 594,421.5C 596.471,427.085 598.638,432.752 600.5,438.5C 595.326,432.16 591.159,425.16 588,417.5C 587.241,415.937 586.074,414.937 584.5,414.5C 584.5,414.167 584.5,413.833 584.5,413.5C 584.938,413.565 585.272,413.399 585.5,413C 584.475,410.929 583.642,408.762 583,406.5C 582.292,405.619 581.458,404.953 580.5,404.5C 581.632,398.762 579.632,394.762 574.5,392.5C 574.5,392.167 574.5,391.833 574.5,391.5C 574.938,391.565 575.272,391.399 575.5,391C 574.577,388.14 573.577,385.307 572.5,382.5 Z"/></g>
<g><path style="opacity:0.964" fill="#2600a7" d="M 435.5,83.5 C 435.833,83.5 436.167,83.5 436.5,83.5C 439.294,88.6342 441.794,93.9675 444,99.5C 450.331,106.497 454.831,114.497 457.5,123.5C 461.925,133.355 466.092,143.355 470,153.5C 474.816,161.966 479.149,170.633 483,179.5C 484.517,181.24 486.017,182.906 487.5,184.5C 489.625,187.581 491.458,190.914 493,194.5C 494.474,198.338 495.474,202.338 496,206.5C 497.568,208.575 499.068,210.575 500.5,212.5C 500.61,216 501.443,219.334 503,222.5C 513.042,242.922 522.875,263.589 532.5,284.5C 533.242,285.287 534.075,285.953 535,286.5C 537.33,296.157 541.497,304.824 547.5,312.5C 548.758,316.036 549.591,319.703 550,323.5C 556.356,336.542 563.022,349.542 570,362.5C 575.447,378.217 582.78,392.883 592,406.5C 593.377,413.078 595.377,419.411 598,425.5C 606.266,440.439 613.433,455.939 619.5,472C 621.367,474.156 623.034,476.323 624.5,478.5C 624.34,480.199 624.506,481.866 625,483.5C 626.726,485.228 628.059,487.228 629,489.5C 628.976,494.254 630.809,497.921 634.5,500.5C 640.702,517.23 648.202,533.23 657,548.5C 670.285,579.07 684.118,609.404 698.5,639.5C 698.957,640.298 699.624,640.631 700.5,640.5C 701.412,644.153 702.745,647.486 704.5,650.5C 711.093,666.677 717.927,682.677 725,698.5C 727.897,703.955 731.063,709.288 734.5,714.5C 737.788,725.884 742.622,736.55 749,746.5C 749.333,748.5 749.667,750.5 750,752.5C 752.117,755.615 753.784,758.948 755,762.5C 757,763.167 758.333,764.5 759,766.5C 760.953,773.731 763.953,780.398 768,786.5C 772.616,798.686 777.616,810.686 783,822.5C 784.993,825.658 786.659,828.992 788,832.5C 789.356,833.38 790.856,833.714 792.5,833.5C 792.5,813.5 792.5,793.5 792.5,773.5C 792.5,772.167 792.5,770.833 792.5,769.5C 793.643,752.841 794.643,736.174 795.5,719.5C 795.5,730.167 795.5,740.833 795.5,751.5C 795.656,759.529 795.323,767.529 794.5,775.5C 793.833,797.167 793.167,818.833 792.5,840.5C 792.613,834.169 791.613,834.169 789.5,840.5C 787.805,838.465 786.472,836.132 785.5,833.5C 781.415,829.796 778.915,825.13 778,819.5C 776.303,816.328 774.47,813.328 772.5,810.5C 772.5,810.167 772.5,809.833 772.5,809.5C 770.704,805.613 769.204,801.613 768,797.5C 767.583,796.244 766.75,795.577 765.5,795.5C 764.281,793.058 762.781,790.724 761,788.5C 760.333,785.167 759.667,781.833 759,778.5C 756.558,775.883 754.058,773.55 751.5,771.5C 751.5,771.167 751.5,770.833 751.5,770.5C 752.124,770.083 752.457,769.416 752.5,768.5C 752,766.5 751.5,764.5 751,762.5C 748.723,758.226 746.056,754.226 743,750.5C 742.743,746.623 741.743,742.957 740,739.5C 738.729,738.117 737.229,737.117 735.5,736.5C 734.833,736.5 734.5,736.167 734.5,735.5C 735.097,735.265 735.43,734.765 735.5,734C 733.67,726.517 730.503,719.683 726,713.5C 722.225,705.357 718.725,697.023 715.5,688.5C 714.151,685.493 712.151,683.16 709.5,681.5C 709.5,681.167 709.5,680.833 709.5,680.5C 709.009,673.676 706.509,667.343 702,661.5C 700.91,658.061 699.744,654.727 698.5,651.5C 697.494,647.142 696.327,642.809 695,638.5C 691.88,633.923 689.546,628.923 688,623.5C 685.265,620.658 683.265,617.325 682,613.5C 681.241,611.937 680.074,610.937 678.5,610.5C 677.833,610.5 677.167,610.5 676.5,610.5C 676.5,610.167 676.5,609.833 676.5,609.5C 676.938,609.565 677.272,609.399 677.5,609C 672.715,596.959 667.715,585.126 662.5,573.5C 659.374,568.38 656.707,563.047 654.5,557.5C 652.552,555.68 651.552,553.346 651.5,550.5C 650.863,547.544 650.363,544.544 650,541.5C 646.107,535.659 643.273,529.325 641.5,522.5C 640.5,522.5 639.5,522.5 638.5,522.5C 637.14,519.38 636.307,516.047 636,512.5C 635.344,510.014 633.844,508.347 631.5,507.5C 630.662,507.158 630.328,506.492 630.5,505.5C 628.985,500.604 627.651,495.604 626.5,490.5C 625.325,490.719 624.325,490.386 623.5,489.5C 620.844,484.033 618.677,478.366 617,472.5C 615.629,470.959 614.129,469.625 612.5,468.5C 609.147,462.962 606.647,456.962 605,450.5C 601.808,447.139 600.308,443.139 600.5,438.5C 598.638,432.752 596.471,427.085 594,421.5C 590.73,418.201 588.896,414.201 588.5,409.5C 587.178,409.67 586.011,409.337 585,408.5C 582.627,398.759 578.46,390.092 572.5,382.5C 571.089,379.325 569.922,375.991 569,372.5C 566.028,370.552 564.028,367.886 563,364.5C 561.35,359.549 559.683,354.549 558,349.5C 554.397,344.103 550.897,338.77 547.5,333.5C 546.776,330.157 545.943,326.824 545,323.5C 541.625,318.205 539.125,312.538 537.5,306.5C 536.5,306.5 535.5,306.5 534.5,306.5C 534.5,306.167 534.5,305.833 534.5,305.5C 535.613,304.054 535.78,302.387 535,300.5C 529.238,286.646 522.738,273.312 515.5,260.5C 514.462,256.882 513.295,253.215 512,249.5C 508.863,244.222 506.03,238.888 503.5,233.5C 500.462,227.424 497.462,221.424 494.5,215.5C 494.116,210.963 492.949,206.629 491,202.5C 486.967,198.766 484.634,194.1 484,188.5C 480.238,182.59 476.738,176.59 473.5,170.5C 465.627,153.529 457.96,136.529 450.5,119.5C 448.578,113.984 445.912,108.984 442.5,104.5C 441.221,100.328 439.555,96.3281 437.5,92.5C 436.99,89.4606 436.323,86.4606 435.5,83.5 Z"/></g>
<g><path style="opacity:0.063" fill="#a49ac9" d="M 658.5,405.5 C 671.325,423.144 683.658,441.144 695.5,459.5C 693.5,457.833 691.5,456.167 689.5,454.5C 688.564,451.329 686.897,448.662 684.5,446.5C 677.136,436.084 670.136,425.417 663.5,414.5C 661.599,412.994 659.932,411.327 658.5,409.5C 658.5,408.167 658.5,406.833 658.5,405.5 Z"/></g>
<g><path style="opacity:0.396" fill="#066883" d="M 464.5,391.5 C 464.5,391.833 464.5,392.167 464.5,392.5C 465.31,423.574 466.31,454.574 467.5,485.5C 466.247,460.988 464.914,436.322 463.5,411.5C 463.493,406.449 462.827,401.783 461.5,397.5C 461.629,395.784 461.962,394.117 462.5,392.5C 463.167,392.167 463.833,391.833 464.5,391.5 Z"/></g>
<g><path style="opacity:0.027" fill="#e5e2f2" d="M 754.5,434.5 C 752.842,439.152 749.842,442.486 745.5,444.5C 748.517,441.094 751.517,437.76 754.5,434.5 Z"/></g>
<g><path style="opacity:0.204" fill="#8770cd" d="M 759.5,431.5 C 758.91,432.766 758.41,434.099 758,435.5C 755.841,436.155 754.341,437.488 753.5,439.5C 747.051,445.707 741.051,452.374 735.5,459.5C 738.228,456.101 740.561,452.434 742.5,448.5C 743.211,446.97 744.211,445.637 745.5,444.5C 749.842,442.486 752.842,439.152 754.5,434.5C 755.979,433.241 757.646,432.241 759.5,431.5 Z"/></g>
<g><path style="opacity:0.455" fill="#5d3ec2" d="M 684.5,446.5 C 686.897,448.662 688.564,451.329 689.5,454.5C 686.368,452.797 684.701,450.13 684.5,446.5 Z"/></g>
<g><path style="opacity:0.051" fill="#120134" d="M 802.5,409.5 C 802.014,445.498 801.68,481.498 801.5,517.5C 800.336,485.003 800.169,452.336 801,419.5C 801.179,415.975 801.679,412.641 802.5,409.5 Z"/></g>
<g><path style="opacity:0.271" fill="#6245bc" d="M 689.5,454.5 C 691.5,456.167 693.5,457.833 695.5,459.5C 695.704,461.685 696.37,463.685 697.5,465.5C 694.102,462.373 691.435,458.707 689.5,454.5 Z"/></g>
<g><path style="opacity:0.288" fill="#19016b" d="M 800.5,390.5 C 802.02,392.588 803.02,394.922 803.5,397.5C 803.354,401.519 803.021,405.519 802.5,409.5C 801.679,412.641 801.179,415.975 801,419.5C 800.169,452.336 800.336,485.003 801.5,517.5C 801.5,523.167 801.5,528.833 801.5,534.5C 800.833,544.833 800.167,555.167 799.5,565.5C 799.279,507.495 799.612,449.495 800.5,391.5C 800.5,391.167 800.5,390.833 800.5,390.5 Z"/></g>
<g><path style="opacity:0.946" fill="#5f29fa" d="M 753.5,439.5 C 754.011,442.15 754.177,444.817 754,447.5C 749.395,451.707 745.228,457.041 741.5,463.5C 740.476,464.853 739.143,465.52 737.5,465.5C 735.529,471.96 731.195,475.46 724.5,476C 724.957,476.414 725.291,476.914 725.5,477.5C 724.758,479.35 723.758,480.016 722.5,479.5C 721.902,488.733 716.902,492.4 707.5,490.5C 707.802,487.941 707.468,485.607 706.5,483.5C 706.409,481.302 707.075,480.969 708.5,482.5C 708.5,484.833 708.5,487.167 708.5,489.5C 711.32,489.752 713.986,489.252 716.5,488C 717.641,487.259 717.641,486.425 716.5,485.5C 718.957,482.391 720.957,479.058 722.5,475.5C 727.221,470.45 731.554,465.116 735.5,459.5C 741.051,452.374 747.051,445.707 753.5,439.5 Z"/></g>
<g><path style="opacity:0.031" fill="#d4cde8" d="M 742.5,448.5 C 740.561,452.434 738.228,456.101 735.5,459.5C 731.554,465.116 727.221,470.45 722.5,475.5C 721.761,475.369 721.094,475.536 720.5,476C 717.993,478.576 715.66,481.243 713.5,484C 711.505,484.613 709.838,484.113 708.5,482.5C 708.371,480.784 708.038,479.117 707.5,477.5C 708.607,478.992 710.107,479.992 712,480.5C 712.833,480.333 713.667,480.167 714.5,480C 724.438,469.898 733.771,459.398 742.5,448.5 Z"/></g>
<g><path style="opacity:0.141" fill="#11012b" d="M 584.5,414.5 C 586.074,414.937 587.241,415.937 588,417.5C 591.159,425.16 595.326,432.16 600.5,438.5C 600.308,443.139 601.808,447.139 605,450.5C 606.647,456.962 609.147,462.962 612.5,468.5C 613.849,472.361 615.682,476.027 618,479.5C 618.737,483.207 619.571,486.873 620.5,490.5C 608.021,465.535 596.021,440.202 584.5,414.5 Z"/></g>
<g><path style="opacity:0.012" fill="#bfbcd1" d="M 695.5,459.5 C 699.993,465.148 703.993,471.148 707.5,477.5C 706.504,477.586 705.671,477.252 705,476.5C 702.616,472.64 700.116,468.974 697.5,465.5C 696.37,463.685 695.704,461.685 695.5,459.5 Z"/></g>
<g><path style="opacity:0.837" fill="#5933d6" d="M 697.5,465.5 C 700.116,468.974 702.616,472.64 705,476.5C 705.671,477.252 706.504,477.586 707.5,477.5C 708.038,479.117 708.371,480.784 708.5,482.5C 707.075,480.969 706.409,481.302 706.5,483.5C 702.938,479.395 700.105,474.728 698,469.5C 697.51,468.207 697.343,466.873 697.5,465.5 Z"/></g>
<g><path style="opacity:0.894" fill="#885bf5" d="M 722.5,475.5 C 720.957,479.058 718.957,482.391 716.5,485.5C 717.641,486.425 717.641,487.259 716.5,488C 713.986,489.252 711.32,489.752 708.5,489.5C 708.5,487.167 708.5,484.833 708.5,482.5C 709.838,484.113 711.505,484.613 713.5,484C 715.66,481.243 717.993,478.576 720.5,476C 721.094,475.536 721.761,475.369 722.5,475.5 Z"/></g>
<g><path style="opacity:0.888" fill="#1d0081" d="M 612.5,468.5 C 614.129,469.625 615.629,470.959 617,472.5C 618.677,478.366 620.844,484.033 623.5,489.5C 624.325,490.386 625.325,490.719 626.5,490.5C 627.651,495.604 628.985,500.604 630.5,505.5C 629.292,504.766 627.959,504.433 626.5,504.5C 626.5,504.167 626.5,503.833 626.5,503.5C 626.938,503.565 627.272,503.399 627.5,503C 626.67,500.198 625.837,497.365 625,494.5C 624.082,492.624 622.582,491.624 620.5,491.5C 620.5,491.167 620.5,490.833 620.5,490.5C 619.571,486.873 618.737,483.207 618,479.5C 615.682,476.027 613.849,472.361 612.5,468.5 Z"/></g>
<g><path style="opacity:0.902" fill="#2c00be" d="M 799.5,391.5 C 799.833,391.5 800.167,391.5 800.5,391.5C 799.612,449.495 799.279,507.495 799.5,565.5C 799.5,572.5 799.5,579.5 799.5,586.5C 798.504,602.325 798.17,618.325 798.5,634.5C 798.5,636.5 798.5,638.5 798.5,640.5C 797.833,648.5 797.167,656.5 796.5,664.5C 797.244,585.504 797.744,506.504 798,427.5C 798.284,418.475 798.784,409.475 799.5,400.5C 799.5,398.5 799.5,396.5 799.5,394.5C 799.5,393.5 799.5,392.5 799.5,391.5 Z"/></g>
<g><path style="opacity:0.122" fill="#110132" d="M 620.5,491.5 C 622.582,491.624 624.082,492.624 625,494.5C 625.837,497.365 626.67,500.198 627.5,503C 627.272,503.399 626.938,503.565 626.5,503.5C 624.519,499.539 622.519,495.539 620.5,491.5 Z"/></g>
<g><path style="opacity:0.835" fill="#14bde9" d="M 473.5,395.5 C 474.769,401.686 476.603,407.686 479,413.5C 480,414.5 481,415.5 482,416.5C 485.814,424.73 489.48,433.064 493,441.5C 494.268,443.717 495.768,445.717 497.5,447.5C 497.899,454.391 500.399,460.391 505,465.5C 505.667,467.5 506.333,469.5 507,471.5C 509,472.167 510.333,473.5 511,475.5C 513.286,484.409 516.953,492.742 522,500.5C 526.16,513.026 531.826,524.693 539,535.5C 544.281,546.681 548.948,558.014 553,569.5C 553.908,571.439 555.408,572.439 557.5,572.5C 562.277,584.99 568.111,596.99 575,608.5C 575.346,611.576 576.012,614.576 577,617.5C 583.407,627.35 589.074,637.683 594,648.5C 594.977,650.74 595.477,653.073 595.5,655.5C 593.405,652.104 591.572,648.437 590,644.5C 583.816,638.18 579.483,630.18 577,620.5C 572.248,613.158 568.248,605.491 565,597.5C 563.122,588.411 559.122,580.411 553,573.5C 552.167,570.5 551.333,567.5 550.5,564.5C 547.167,561.168 545.167,557.168 544.5,552.5C 543.5,552.5 542.5,552.5 541.5,552.5C 540.428,547.209 538.595,542.209 536,537.5C 535.667,537.833 535.333,538.167 535,538.5C 532.549,530.271 529.549,522.271 526,514.5C 524.463,510.588 522.296,507.088 519.5,504C 512.922,489.019 506.255,474.185 499.5,459.5C 497.728,456.723 495.895,456.39 494,458.5C 492.149,456.96 490.982,455.46 490.5,454C 490.833,453.667 491.167,453.333 491.5,453C 488.956,450.553 488.956,448.053 491.5,445.5C 488.897,437.627 485.23,430.293 480.5,423.5C 477.702,414.942 474.702,406.609 471.5,398.5C 471.285,396.821 471.952,395.821 473.5,395.5 Z"/></g>
<g><path style="opacity:0.886" fill="#1f0087" d="M 631.5,507.5 C 633.844,508.347 635.344,510.014 636,512.5C 636.307,516.047 637.14,519.38 638.5,522.5C 639.5,522.5 640.5,522.5 641.5,522.5C 643.273,529.325 646.107,535.659 650,541.5C 650.363,544.544 650.863,547.544 651.5,550.5C 644.684,538.926 638.518,526.926 633,514.5C 632.023,512.26 631.523,509.927 631.5,507.5 Z"/></g>
<g><path style="opacity:0.745" fill="#008ab0" d="M 464.5,392.5 C 464.833,392.5 465.167,392.5 465.5,392.5C 465.5,396.167 465.5,399.833 465.5,403.5C 467.574,426.114 468.741,448.781 469,471.5C 470.36,577.691 469.193,683.691 465.5,789.5C 467.002,688.173 467.669,586.84 467.5,485.5C 466.31,454.574 465.31,423.574 464.5,392.5 Z"/></g>
<g><path style="opacity:0.043" fill="#100028" d="M 626.5,504.5 C 627.959,504.433 629.292,504.766 630.5,505.5C 630.328,506.492 630.662,507.158 631.5,507.5C 631.523,509.927 632.023,512.26 633,514.5C 638.518,526.926 644.684,538.926 651.5,550.5C 651.552,553.346 652.552,555.68 654.5,557.5C 655.167,560.5 655.833,563.5 656.5,566.5C 645.973,546.112 635.973,525.445 626.5,504.5 Z"/></g>
<g><path style="opacity:0.992" fill="#3200d8" d="M 634.5,500.5 C 636.34,502.168 638.34,503.668 640.5,505C 639.483,506.049 639.316,507.216 640,508.5C 641.912,510.657 643.579,512.991 645,515.5C 653.652,538.465 663.652,560.799 675,582.5C 676.824,589.144 679.324,595.478 682.5,601.5C 685.971,605.449 688.138,610.115 689,615.5C 693.426,623.677 697.259,632.01 700.5,640.5C 699.624,640.631 698.957,640.298 698.5,639.5C 684.118,609.404 670.285,579.07 657,548.5C 648.202,533.23 640.702,517.23 634.5,500.5 Z"/></g>
<g><path style="opacity:0.137" fill="#15015c" d="M 654.5,557.5 C 656.707,563.047 659.374,568.38 662.5,573.5C 661.194,570.661 659.194,568.328 656.5,566.5C 655.833,563.5 655.167,560.5 654.5,557.5 Z"/></g>
<g><path style="opacity:0.118" fill="#12023c" d="M 801.5,534.5 C 801.5,552.833 801.5,571.167 801.5,589.5C 799.952,589.179 799.285,588.179 799.5,586.5C 799.5,579.5 799.5,572.5 799.5,565.5C 800.167,555.167 800.833,544.833 801.5,534.5 Z"/></g>
<g><path style="opacity:0.059" fill="#12012c" d="M 656.5,566.5 C 659.194,568.328 661.194,570.661 662.5,573.5C 667.715,585.126 672.715,596.959 677.5,609C 677.272,609.399 676.938,609.565 676.5,609.5C 669.077,595.584 662.41,581.251 656.5,566.5 Z"/></g>
<g><path style="opacity:0.296" fill="#190071" d="M 799.5,586.5 C 799.285,588.179 799.952,589.179 801.5,589.5C 801.5,589.833 801.5,590.167 801.5,590.5C 800.883,590.611 800.383,590.944 800,591.5C 799.831,606.006 799.331,620.339 798.5,634.5C 798.17,618.325 798.504,602.325 799.5,586.5 Z"/></g>
<g><path style="opacity:0.024" fill="#08001c" d="M 676.5,610.5 C 677.167,610.5 677.833,610.5 678.5,610.5C 680.442,614.327 681.776,618.327 682.5,622.5C 680.533,618.565 678.533,614.565 676.5,610.5 Z"/></g>
<g><path style="opacity:0.029" fill="#0d0023" d="M 801.5,590.5 C 800.817,622.833 800.151,655.166 799.5,687.5C 798.504,672.009 798.17,656.342 798.5,640.5C 798.5,638.5 798.5,636.5 798.5,634.5C 799.331,620.339 799.831,606.006 800,591.5C 800.383,590.944 800.883,590.611 801.5,590.5 Z"/></g>
<g><path style="opacity:0.008" fill="#0c0018" d="M 686.5,631.5 C 685.227,629.287 684.227,626.954 683.5,624.5C 683.56,623.957 683.893,623.624 684.5,623.5C 685.187,625.274 686.02,626.941 687,628.5C 687.74,629.749 687.573,630.749 686.5,631.5 Z"/></g>
<g><path style="opacity:0.843" fill="#1d0081" d="M 678.5,610.5 C 680.074,610.937 681.241,611.937 682,613.5C 683.265,617.325 685.265,620.658 688,623.5C 689.546,628.923 691.88,633.923 695,638.5C 696.327,642.809 697.494,647.142 698.5,651.5C 694.645,645.26 690.978,638.926 687.5,632.5C 686.833,632.5 686.5,632.167 686.5,631.5C 687.573,630.749 687.74,629.749 687,628.5C 686.02,626.941 685.187,625.274 684.5,623.5C 683.893,623.624 683.56,623.957 683.5,624.5C 682.662,624.158 682.328,623.492 682.5,622.5C 681.776,618.327 680.442,614.327 678.5,610.5 Z"/></g>
<g><path style="opacity:0.969" fill="#3500e7" d="M 799.5,400.5 C 798.784,409.475 798.284,418.475 798,427.5C 797.744,506.504 797.244,585.504 796.5,664.5C 796.5,671.5 796.5,678.5 796.5,685.5C 794.987,693.616 794.154,701.949 794,710.5C 793.102,730.158 792.602,749.824 792.5,769.5C 792.5,770.833 792.5,772.167 792.5,773.5C 791.881,791.025 791.048,808.692 790,826.5C 788.649,826.554 787.482,826.054 786.5,825C 785.044,821.6 784.044,818.1 783.5,814.5C 785.24,816.974 786.74,819.641 788,822.5C 789.269,813.401 790.102,803.734 790.5,793.5C 789.33,765.823 789.997,737.823 792.5,709.5C 792.443,705.208 792.11,700.875 791.5,696.5C 791.529,694.971 792.196,693.804 793.5,693C 793.056,691.467 792.723,689.967 792.5,688.5C 794.03,682.795 794.697,676.962 794.5,671C 794.624,657.552 794.29,644.386 793.5,631.5C 794,630.5 794.5,629.5 795,628.5C 795.333,623.5 795.667,618.5 796,613.5C 796.212,543.685 796.045,475.685 795.5,409.5C 796.469,406.231 797.802,403.231 799.5,400.5 Z"/></g>
<g><path style="opacity:0.027" fill="#10022f" d="M 687.5,632.5 C 690.978,638.926 694.645,645.26 698.5,651.5C 699.744,654.727 700.91,658.061 702,661.5C 706.509,667.343 709.009,673.676 709.5,680.5C 701.617,664.736 694.284,648.736 687.5,632.5 Z"/></g>
<g><path style="opacity:0.005" fill="#020a10" d="M 464.5,678.5 C 465.015,685.757 465.348,693.923 465.5,703C 465.295,708.37 464.628,713.537 463.5,718.5C 463.171,704.99 463.504,691.656 464.5,678.5 Z"/></g>
<g><path style="opacity:0.131" fill="#133b46" d="M 461.5,397.5 C 462.827,401.783 463.493,406.449 463.5,411.5C 464.914,436.322 466.247,460.988 467.5,485.5C 467.669,586.84 467.002,688.173 465.5,789.5C 464.608,799.134 464.275,808.801 464.5,818.5C 463.5,820.5 462.5,822.5 461.5,824.5C 461.974,789.147 462.641,753.814 463.5,718.5C 464.628,713.537 465.295,708.37 465.5,703C 465.348,693.923 465.015,685.757 464.5,678.5C 465.621,584.817 464.621,491.15 461.5,397.5 Z"/></g>
<g><path style="opacity:0.082" fill="#130240" d="M 799.5,688.5 C 799.5,693.5 799.5,698.5 799.5,703.5C 798.195,701.603 797.529,699.269 797.5,696.5C 797.667,694.167 797.833,691.833 798,689.5C 798.383,688.944 798.883,688.611 799.5,688.5 Z"/></g>
<g><path style="opacity:0.102" fill="#11002a" d="M 709.5,681.5 C 712.151,683.16 714.151,685.493 715.5,688.5C 718.725,697.023 722.225,705.357 726,713.5C 730.503,719.683 733.67,726.517 735.5,734C 735.43,734.765 735.097,735.265 734.5,735.5C 726.546,717.296 718.213,699.296 709.5,681.5 Z"/></g>
<g><path style="opacity:0.029" fill="#15112f" d="M 799.5,704.5 C 799.451,711.849 799.118,719.183 798.5,726.5C 797.345,719.679 797.179,712.679 798,705.5C 798.383,704.944 798.883,704.611 799.5,704.5 Z"/></g>
<g><path style="opacity:0.882" fill="#2d00c2" d="M 796.5,685.5 C 796.828,697.012 796.495,708.346 795.5,719.5C 794.643,736.174 793.643,752.841 792.5,769.5C 792.602,749.824 793.102,730.158 794,710.5C 794.154,701.949 794.987,693.616 796.5,685.5 Z"/></g>
<g><path style="opacity:0.29" fill="#190070" d="M 798.5,640.5 C 798.17,656.342 798.504,672.009 799.5,687.5C 799.5,687.833 799.5,688.167 799.5,688.5C 798.883,688.611 798.383,688.944 798,689.5C 797.833,691.833 797.667,694.167 797.5,696.5C 797.529,699.269 798.195,701.603 799.5,703.5C 799.5,703.833 799.5,704.167 799.5,704.5C 798.883,704.611 798.383,704.944 798,705.5C 797.179,712.679 797.345,719.679 798.5,726.5C 798.5,727.5 798.5,728.5 798.5,729.5C 797.812,734.567 797.145,739.733 796.5,745C 796.833,745.333 797.167,745.667 797.5,746C 796.891,747.948 796.224,749.782 795.5,751.5C 795.5,740.833 795.5,730.167 795.5,719.5C 796.495,708.346 796.828,697.012 796.5,685.5C 796.5,678.5 796.5,671.5 796.5,664.5C 797.167,656.5 797.833,648.5 798.5,640.5 Z"/></g>
<g><path style="opacity:0.967" fill="#0086aa" d="M 597.5,796.5 C 600.022,804.2 604.522,810.533 611,815.5C 615.267,822.369 619.267,829.369 623,836.5C 626.597,839.361 628.931,843.028 630,847.5C 636.69,857.558 643.856,867.225 651.5,876.5C 652.098,877.795 652.598,879.128 653,880.5C 657.428,883.973 661.428,887.973 665,892.5C 669.629,900.76 673.962,909.093 678,917.5C 683.905,923.633 688.571,930.633 692,938.5C 697.482,944.13 701.982,950.464 705.5,957.5C 706.357,958.425 707.357,959.092 708.5,959.5C 717.497,975.495 727.497,990.828 738.5,1005.5C 739.851,1007.02 741.351,1008.35 743,1009.5C 743.36,1011.61 744.027,1013.61 745,1015.5C 755.098,1028.49 764.098,1042.16 772,1056.5C 773.351,1058.02 774.851,1059.35 776.5,1060.5C 778.508,1065.19 781.008,1069.52 784,1073.5C 789.447,1079.31 793.78,1085.98 797,1093.5C 798.039,1094.71 799.206,1095.71 800.5,1096.5C 804.229,1101.28 807.229,1106.61 809.5,1112.5C 809.957,1113.3 810.624,1113.63 811.5,1113.5C 814.156,1118.35 816.656,1123.35 819,1128.5C 825.846,1138.16 832.013,1148.16 837.5,1158.5C 833.362,1154.71 829.862,1150.38 827,1145.5C 826.329,1144.75 825.496,1144.41 824.5,1144.5C 817.167,1132.83 809.833,1121.17 802.5,1109.5C 802.657,1108.13 802.49,1106.79 802,1105.5C 795.213,1098.91 790.213,1091.24 787,1082.5C 785.926,1081.38 784.76,1080.38 783.5,1079.5C 781.563,1076.26 779.729,1072.93 778,1069.5C 774.293,1066.42 771.293,1062.76 769,1058.5C 763.251,1048.31 757.251,1038.31 751,1028.5C 746.429,1022.37 742.096,1016.03 738,1009.5C 736.53,1008.73 735.03,1008.07 733.5,1007.5C 726.771,998.255 720.604,988.588 715,978.5C 712.295,975.964 709.795,973.297 707.5,970.5C 705.871,969.375 704.371,968.041 703,966.5C 700.243,959.73 696.243,953.73 691,948.5C 685,938.5 679,928.5 673,918.5C 664.907,909.903 657.74,900.57 651.5,890.5C 647.407,881.566 641.907,873.566 635,866.5C 634,864.167 633,861.833 632,859.5C 629.029,854.662 625.363,850.329 621,846.5C 618.157,842.971 616.157,838.971 615,834.5C 613.667,833.167 612.333,831.833 611,830.5C 609.512,826.19 607.512,822.19 605,818.5C 600.23,811.944 595.73,805.277 591.5,798.5C 587.855,790.431 583.022,783.098 577,776.5C 570.574,764.761 562.408,754.595 552.5,746C 551.833,745.833 551.167,745.667 550.5,745.5C 548.84,746.787 547.174,748.12 545.5,749.5C 542.17,754.818 538.504,759.818 534.5,764.5C 531.183,768.984 527.683,773.317 524,777.5C 523.421,778.928 523.588,780.262 524.5,781.5C 520.358,783.12 516.858,785.786 514,789.5C 511,793.833 508,798.167 505,802.5C 498.657,808.44 492.99,814.773 488,821.5C 483.443,824.729 480.443,829.062 479,834.5C 475.527,837.973 472.027,841.473 468.5,845C 466.866,845.494 465.199,845.66 463.5,845.5C 463.327,840.081 462.327,835.081 460.5,830.5C 460.205,828.265 460.539,826.265 461.5,824.5C 462.5,822.5 463.5,820.5 464.5,818.5C 464.5,824.167 464.5,829.833 464.5,835.5C 468.56,834.945 471.727,832.945 474,829.5C 480.725,820.124 487.392,810.791 494,801.5C 501.707,793.747 508.707,785.413 515,776.5C 519.95,771.959 523.95,766.626 527,760.5C 533.606,754.647 539.773,748.314 545.5,741.5C 551.34,739.347 556.174,740.68 560,745.5C 572.22,761.999 583.887,778.665 595,795.5C 595.671,796.252 596.504,796.586 597.5,796.5 Z"/></g>
<g><path style="opacity:0.102" fill="#110234" d="M 735.5,736.5 C 737.229,737.117 738.729,738.117 740,739.5C 741.743,742.957 742.743,746.623 743,750.5C 746.056,754.226 748.723,758.226 751,762.5C 751.5,764.5 752,766.5 752.5,768.5C 752.457,769.416 752.124,770.083 751.5,770.5C 745.215,759.659 739.881,748.326 735.5,736.5 Z"/></g>
<g><path style="opacity:0.992" fill="#00b5e6" d="M 465.5,403.5 C 467.526,410.268 469.192,417.268 470.5,424.5C 470.418,432.676 470.418,440.843 470.5,449C 471.167,449.667 471.833,450.333 472.5,451C 471.864,461.63 471.531,472.297 471.5,483C 472.167,489 472.833,495 473.5,501C 473.087,509.747 473.087,518.58 473.5,527.5C 472.865,531.367 472.199,535.2 471.5,539C 471.921,548.684 471.921,558.351 471.5,568C 471.775,570.931 472.441,573.765 473.5,576.5C 472.167,583.5 472.167,590.5 473.5,597.5C 472.846,606.697 472.179,615.864 471.5,625C 471.987,635.79 472.321,646.623 472.5,657.5C 471.068,660.668 470.401,664.001 470.5,667.5C 470.974,670.343 470.974,673.009 470.5,675.5C 470.977,676.478 471.643,677.311 472.5,678C 471.692,678.308 471.025,678.808 470.5,679.5C 471.032,687.115 471.366,694.949 471.5,703C 470.833,710 470.167,717 469.5,724C 469.489,744.653 469.823,765.32 470.5,786C 468.986,787.439 468.653,788.939 469.5,790.5C 468.519,802.213 467.186,813.88 465.5,825.5C 465.998,827.664 467.164,829.331 469,830.5C 475.08,825.572 479.746,819.572 483,812.5C 483.684,811.216 483.517,810.049 482.5,809C 484.918,808.085 486.918,806.585 488.5,804.5C 490.644,800.859 493.311,797.692 496.5,795C 495.167,793.16 495.334,792.66 497,793.5C 499.024,791.31 500.857,788.977 502.5,786.5C 505.679,785.816 508.179,784.149 510,781.5C 519.551,765.288 531.384,750.788 545.5,738C 551.099,735.86 556.266,736.693 561,740.5C 567.37,749.64 573.37,758.973 579,768.5C 582.757,771.917 586.09,775.584 589,779.5C 591.096,785.602 593.929,791.268 597.5,796.5C 596.504,796.586 595.671,796.252 595,795.5C 583.887,778.665 572.22,761.999 560,745.5C 556.174,740.68 551.34,739.347 545.5,741.5C 539.773,748.314 533.606,754.647 527,760.5C 523.95,766.626 519.95,771.959 515,776.5C 508.707,785.413 501.707,793.747 494,801.5C 487.392,810.791 480.725,820.124 474,829.5C 471.727,832.945 468.56,834.945 464.5,835.5C 464.5,829.833 464.5,824.167 464.5,818.5C 464.275,808.801 464.608,799.134 465.5,789.5C 469.193,683.691 470.36,577.691 469,471.5C 468.741,448.781 467.574,426.114 465.5,403.5 Z"/></g>
<g><path style="opacity:0.843" fill="#006c8a" d="M 591.5,798.5 C 588.377,796.55 586.21,793.884 585,790.5C 579.6,785.567 575.267,779.901 572,773.5C 567.637,769.671 563.971,765.338 561,760.5C 559.075,755.745 556.242,751.578 552.5,748C 551.5,747.333 550.5,747.333 549.5,748C 545.399,754.27 540.399,759.77 534.5,764.5C 538.504,759.818 542.17,754.818 545.5,749.5C 547.174,748.12 548.84,746.787 550.5,745.5C 551.167,745.667 551.833,745.833 552.5,746C 562.408,754.595 570.574,764.761 577,776.5C 583.022,783.098 587.855,790.431 591.5,798.5 Z"/></g>
<g><path style="opacity:0.09" fill="#12032a" d="M 798.5,729.5 C 797.858,754.854 796.858,780.187 795.5,805.5C 794.855,795.828 794.522,785.828 794.5,775.5C 795.323,767.529 795.656,759.529 795.5,751.5C 796.224,749.782 796.891,747.948 797.5,746C 797.167,745.667 796.833,745.333 796.5,745C 797.145,739.733 797.812,734.567 798.5,729.5 Z"/></g>
<g><path style="opacity:0.851" fill="#17b2dd" d="M 632.5,731.5 C 635.518,737.646 639.018,743.646 643,749.5C 644.005,754.509 646.339,758.842 650,762.5C 650.214,767.704 651.881,772.371 655,776.5C 655.49,777.793 655.657,779.127 655.5,780.5C 656.5,780.5 657.5,780.5 658.5,780.5C 658.838,782.854 659.338,785.187 660,787.5C 662.672,792.17 665.339,796.837 668,801.5C 669.143,804.777 669.977,808.11 670.5,811.5C 669.624,811.631 668.957,811.298 668.5,810.5C 655.336,784.666 643.336,758.332 632.5,731.5 Z"/></g>
<g><path style="opacity:0.192" fill="#598b99" d="M 473.5,395.5 C 474.167,395.833 474.833,396.167 475.5,396.5C 498.105,445.713 521.272,494.713 545,543.5C 624.736,707.643 704.569,871.977 784.5,1036.5C 783.883,1036.61 783.383,1036.94 783,1037.5C 778.594,1029.41 774.594,1021.07 771,1012.5C 770.075,1011.95 769.242,1011.29 768.5,1010.5C 765.398,1003.96 762.065,997.627 758.5,991.5C 755.234,985.086 752.734,978.42 751,971.5C 743.427,958.024 736.094,944.357 729,930.5C 721.239,913.264 713.406,896.097 705.5,879C 704.272,876.435 702.606,874.269 700.5,872.5C 693.766,856.7 686.266,841.367 678,826.5C 676.918,820.731 674.418,815.731 670.5,811.5C 669.977,808.11 669.143,804.777 668,801.5C 665.339,796.837 662.672,792.17 660,787.5C 659.338,785.187 658.838,782.854 658.5,780.5C 657.5,780.5 656.5,780.5 655.5,780.5C 655.657,779.127 655.49,777.793 655,776.5C 651.881,772.371 650.214,767.704 650,762.5C 646.339,758.842 644.005,754.509 643,749.5C 639.018,743.646 635.518,737.646 632.5,731.5C 630.88,726.726 629.047,722.059 627,717.5C 626,715.833 624.667,714.5 623,713.5C 619.43,704.12 615.097,695.12 610,686.5C 607.365,679.216 604.699,671.883 602,664.5C 598.839,662.093 596.672,659.093 595.5,655.5C 595.477,653.073 594.977,650.74 594,648.5C 589.074,637.683 583.407,627.35 577,617.5C 576.012,614.576 575.346,611.576 575,608.5C 568.111,596.99 562.277,584.99 557.5,572.5C 555.408,572.439 553.908,571.439 553,569.5C 548.948,558.014 544.281,546.681 539,535.5C 531.826,524.693 526.16,513.026 522,500.5C 516.953,492.742 513.286,484.409 511,475.5C 510.333,473.5 509,472.167 507,471.5C 506.333,469.5 505.667,467.5 505,465.5C 500.399,460.391 497.899,454.391 497.5,447.5C 495.768,445.717 494.268,443.717 493,441.5C 489.48,433.064 485.814,424.73 482,416.5C 481,415.5 480,414.5 479,413.5C 476.603,407.686 474.769,401.686 473.5,395.5 Z"/></g>
<g><path style="opacity:0.02" fill="#100334" d="M 751.5,771.5 C 754.058,773.55 756.558,775.883 759,778.5C 759.667,781.833 760.333,785.167 761,788.5C 762.781,790.724 764.281,793.058 765.5,795.5C 766.156,797.484 766.822,799.484 767.5,801.5C 767.457,802.416 767.124,803.083 766.5,803.5C 761.534,792.898 756.534,782.231 751.5,771.5 Z"/></g>
<g><path style="opacity:0.275" fill="#14035d" d="M 765.5,795.5 C 766.75,795.577 767.583,796.244 768,797.5C 769.204,801.613 770.704,805.613 772.5,809.5C 770.833,808.167 769.167,806.833 767.5,805.5C 767.167,804.833 766.833,804.167 766.5,803.5C 767.124,803.083 767.457,802.416 767.5,801.5C 766.822,799.484 766.156,797.484 765.5,795.5 Z"/></g>
<g><path style="opacity:0.035" fill="#10001f" d="M 767.5,805.5 C 769.167,806.833 770.833,808.167 772.5,809.5C 772.5,809.833 772.5,810.167 772.5,810.5C 774.902,816.525 777.235,822.691 779.5,829C 779.272,829.399 778.938,829.565 778.5,829.5C 774.456,821.712 770.789,813.712 767.5,805.5 Z"/></g>
<g><path style="opacity:0.979" fill="#3100d6" d="M 704.5,650.5 C 705.833,651.933 707.333,653.267 709,654.5C 710.624,658.746 711.957,663.08 713,667.5C 717.26,675.157 720.926,683.157 724,691.5C 726.334,692.67 728.168,694.337 729.5,696.5C 735.43,711.123 741.263,725.79 747,740.5C 753.39,750.239 759.057,760.573 764,771.5C 764.333,773.5 764.667,775.5 765,777.5C 771.181,789.863 777.348,802.196 783.5,814.5C 784.044,818.1 785.044,821.6 786.5,825C 787.482,826.054 788.649,826.554 790,826.5C 791.048,808.692 791.881,791.025 792.5,773.5C 792.5,793.5 792.5,813.5 792.5,833.5C 790.856,833.714 789.356,833.38 788,832.5C 786.659,828.992 784.993,825.658 783,822.5C 777.616,810.686 772.616,798.686 768,786.5C 763.953,780.398 760.953,773.731 759,766.5C 758.333,764.5 757,763.167 755,762.5C 753.784,758.948 752.117,755.615 750,752.5C 749.667,750.5 749.333,748.5 749,746.5C 742.622,736.55 737.788,725.884 734.5,714.5C 731.063,709.288 727.897,703.955 725,698.5C 717.927,682.677 711.093,666.677 704.5,650.5 Z"/></g>
<g><path style="opacity:0.071" fill="#180941" d="M 794.5,775.5 C 794.522,785.828 794.855,795.828 795.5,805.5C 795.667,817.505 795.5,829.505 795,841.5C 794.768,842.737 794.268,843.737 793.5,844.5C 791.927,846.836 790.594,846.836 789.5,844.5C 791.912,844.306 792.912,842.973 792.5,840.5C 793.167,818.833 793.833,797.167 794.5,775.5 Z"/></g>
<g><path style="opacity:0.035" fill="#0e0321" d="M 778.5,830.5 C 781.656,833.036 783.823,836.369 785,840.5C 786.371,842.041 787.871,843.375 789.5,844.5C 790.594,846.836 791.927,846.836 793.5,844.5C 792.717,848.393 790.717,849.227 787.5,847C 783.845,841.877 780.845,836.377 778.5,830.5 Z"/></g>
<g><path style="opacity:0.792" fill="#1c007d" d="M 772.5,810.5 C 774.47,813.328 776.303,816.328 778,819.5C 778.915,825.13 781.415,829.796 785.5,833.5C 786.472,836.132 787.805,838.465 789.5,840.5C 791.613,834.169 792.613,834.169 792.5,840.5C 792.912,842.973 791.912,844.306 789.5,844.5C 787.871,843.375 786.371,842.041 785,840.5C 783.823,836.369 781.656,833.036 778.5,830.5C 778.5,830.167 778.5,829.833 778.5,829.5C 778.938,829.565 779.272,829.399 779.5,829C 777.235,822.691 774.902,816.525 772.5,810.5 Z"/></g>
<g><path style="opacity:0.106" fill="#092931" d="M 524.5,781.5 C 506.288,802.88 488.622,824.713 471.5,847C 468.374,849.841 465.207,850.007 462,847.5C 460.649,841.928 460.149,836.262 460.5,830.5C 462.327,835.081 463.327,840.081 463.5,845.5C 465.199,845.66 466.866,845.494 468.5,845C 472.027,841.473 475.527,837.973 479,834.5C 480.443,829.062 483.443,824.729 488,821.5C 492.99,814.773 498.657,808.44 505,802.5C 508,798.167 511,793.833 514,789.5C 516.858,785.786 520.358,783.12 524.5,781.5 Z"/></g>
<g><path style="opacity:0.067" fill="#09262f" d="M 591.5,798.5 C 595.73,805.277 600.23,811.944 605,818.5C 607.512,822.19 609.512,826.19 611,830.5C 612.333,831.833 613.667,833.167 615,834.5C 616.157,838.971 618.157,842.971 621,846.5C 625.363,850.329 629.029,854.662 632,859.5C 633,861.833 634,864.167 635,866.5C 641.907,873.566 647.407,881.566 651.5,890.5C 657.74,900.57 664.907,909.903 673,918.5C 679,928.5 685,938.5 691,948.5C 696.243,953.73 700.243,959.73 703,966.5C 704.371,968.041 705.871,969.375 707.5,970.5C 708.049,972.901 708.882,975.235 710,977.5C 713.216,981.441 716.049,985.607 718.5,990C 717.944,990.383 717.611,990.883 717.5,991.5C 663.915,912.085 609.748,833.085 555,754.5C 553.981,753.313 552.814,752.313 551.5,751.5C 550.3,752.531 548.966,753.365 547.5,754C 540.172,763.515 532.505,772.682 524.5,781.5C 523.588,780.262 523.421,778.928 524,777.5C 527.683,773.317 531.183,768.984 534.5,764.5C 540.399,759.77 545.399,754.27 549.5,748C 550.5,747.333 551.5,747.333 552.5,748C 556.242,751.578 559.075,755.745 561,760.5C 563.971,765.338 567.637,769.671 572,773.5C 575.267,779.901 579.6,785.567 585,790.5C 586.21,793.884 588.377,796.55 591.5,798.5 Z"/></g>
<g><path style="opacity:0.992" fill="#00b3e4" d="M 708.5,959.5 C 709.496,959.414 710.329,959.748 711,960.5C 713.486,964.801 715.986,969.135 718.5,973.5C 724.345,978.568 728.678,984.568 731.5,991.5C 732.5,991.5 733.5,991.5 734.5,991.5C 739.522,999.697 744.355,1008.03 749,1016.5C 752.58,1020.29 755.913,1024.29 759,1028.5C 766.429,1041.84 774.762,1054.5 784,1066.5C 789.356,1076.66 794.856,1086.66 800.5,1096.5C 799.206,1095.71 798.039,1094.71 797,1093.5C 793.78,1085.98 789.447,1079.31 784,1073.5C 781.008,1069.52 778.508,1065.19 776.5,1060.5C 774.851,1059.35 773.351,1058.02 772,1056.5C 764.098,1042.16 755.098,1028.49 745,1015.5C 744.027,1013.61 743.36,1011.61 743,1009.5C 741.351,1008.35 739.851,1007.02 738.5,1005.5C 727.497,990.828 717.497,975.495 708.5,959.5 Z"/></g>
<g><path style="opacity:0.184" fill="#082229" d="M 717.5,991.5 C 722.599,992.775 725.433,996.108 726,1001.5C 730.667,1007.5 735.333,1013.5 740,1019.5C 741.591,1021.93 742.425,1024.59 742.5,1027.5C 733.686,1015.89 725.353,1003.89 717.5,991.5 Z"/></g>
<g><path style="opacity:0.263" fill="#00536a" d="M 707.5,970.5 C 709.795,973.297 712.295,975.964 715,978.5C 720.604,988.588 726.771,998.255 733.5,1007.5C 736.532,1013.01 740.365,1018.01 745,1022.5C 745.889,1025.68 747.055,1028.68 748.5,1031.5C 746.871,1030.37 745.371,1029.04 744,1027.5C 743.617,1028.06 743.117,1028.39 742.5,1028.5C 742.5,1028.17 742.5,1027.83 742.5,1027.5C 742.425,1024.59 741.591,1021.93 740,1019.5C 735.333,1013.5 730.667,1007.5 726,1001.5C 725.433,996.108 722.599,992.775 717.5,991.5C 717.611,990.883 717.944,990.383 718.5,990C 716.049,985.607 713.216,981.441 710,977.5C 708.882,975.235 708.049,972.901 707.5,970.5 Z"/></g>
<g><path style="opacity:0.078" fill="#09252e" d="M 748.5,1031.5 C 755.114,1041.29 761.947,1050.95 769,1060.5C 769.832,1064.33 771.332,1067.83 773.5,1071C 773.272,1071.4 772.938,1071.57 772.5,1071.5C 762.266,1057.38 752.266,1043.05 742.5,1028.5C 743.117,1028.39 743.617,1028.06 744,1027.5C 745.371,1029.04 746.871,1030.37 748.5,1031.5 Z"/></g>
<g><path style="opacity:0.157" fill="#558da0" d="M 784.5,1037.5 C 805.497,1079.5 826.497,1121.5 847.5,1163.5C 847.062,1164.51 846.396,1164.51 845.5,1163.5C 842.455,1159.78 839.622,1155.78 837,1151.5C 835.156,1148.47 834.156,1145.13 834,1141.5C 830.281,1139.21 828.615,1135.88 829,1131.5C 827.166,1128.09 824.833,1125.09 822,1122.5C 820.326,1117.79 818.66,1113.12 817,1108.5C 814.886,1105.91 813.053,1103.24 811.5,1100.5C 810.009,1098.13 809.009,1095.46 808.5,1092.5C 807.147,1091.31 805.98,1089.98 805,1088.5C 801.75,1078.67 797.416,1069.33 792,1060.5C 788.6,1053.13 786.1,1045.47 784.5,1037.5 Z"/></g>
<g><path style="opacity:0.659" fill="#006c8a" d="M 733.5,1007.5 C 735.03,1008.07 736.53,1008.73 738,1009.5C 742.096,1016.03 746.429,1022.37 751,1028.5C 757.251,1038.31 763.251,1048.31 769,1058.5C 771.293,1062.76 774.293,1066.42 778,1069.5C 779.729,1072.93 781.563,1076.26 783.5,1079.5C 784.76,1080.38 785.926,1081.38 787,1082.5C 790.213,1091.24 795.213,1098.91 802,1105.5C 802.49,1106.79 802.657,1108.13 802.5,1109.5C 797.55,1103.7 792.717,1097.7 788,1091.5C 787.027,1089.61 786.36,1087.61 786,1085.5C 782.523,1083.36 780.189,1080.36 779,1076.5C 777.429,1074.08 775.263,1072.74 772.5,1072.5C 772.5,1072.17 772.5,1071.83 772.5,1071.5C 772.938,1071.57 773.272,1071.4 773.5,1071C 771.332,1067.83 769.832,1064.33 769,1060.5C 761.947,1050.95 755.114,1041.29 748.5,1031.5C 747.055,1028.68 745.889,1025.68 745,1022.5C 740.365,1018.01 736.532,1013.01 733.5,1007.5 Z"/></g>
<g><path style="opacity:0.094" fill="#092c35" d="M 772.5,1072.5 C 775.263,1072.74 777.429,1074.08 779,1076.5C 780.189,1080.36 782.523,1083.36 786,1085.5C 786.36,1087.61 787.027,1089.61 788,1091.5C 792.717,1097.7 797.55,1103.7 802.5,1109.5C 809.833,1121.17 817.167,1132.83 824.5,1144.5C 831.593,1153.43 838.093,1162.76 844,1172.5C 846.292,1173.79 848.292,1175.46 850,1177.5C 850.333,1177.17 850.667,1176.83 851,1176.5C 851.417,1177.76 852.25,1178.42 853.5,1178.5C 853.305,1180.9 852.138,1182.57 850,1183.5C 847.342,1182.01 845.176,1180.01 843.5,1177.5C 820.208,1142.21 796.541,1107.21 772.5,1072.5 Z"/></g>
<g><path style="opacity:0.898" fill="#12bbe9" d="M 811.5,1100.5 C 813.053,1103.24 814.886,1105.91 817,1108.5C 818.66,1113.12 820.326,1117.79 822,1122.5C 824.833,1125.09 827.166,1128.09 829,1131.5C 828.615,1135.88 830.281,1139.21 834,1141.5C 834.156,1145.13 835.156,1148.47 837,1151.5C 839.622,1155.78 842.455,1159.78 845.5,1163.5C 845.821,1164.82 846.154,1166.15 846.5,1167.5C 846.267,1168.93 845.6,1169.43 844.5,1169C 842.618,1165.17 840.285,1161.67 837.5,1158.5C 832.013,1148.16 825.846,1138.16 819,1128.5C 816.656,1123.35 814.156,1118.35 811.5,1113.5C 812.5,1113.5 813.5,1113.5 814.5,1113.5C 813.022,1109.32 812.022,1104.99 811.5,1100.5 Z"/></g>
<g><path style="opacity:0.482" fill="#1b6880" d="M 824.5,1144.5 C 825.496,1144.41 826.329,1144.75 827,1145.5C 829.862,1150.38 833.362,1154.71 837.5,1158.5C 840.285,1161.67 842.618,1165.17 844.5,1169C 845.6,1169.43 846.267,1168.93 846.5,1167.5C 846.154,1166.15 845.821,1164.82 845.5,1163.5C 846.396,1164.51 847.062,1164.51 847.5,1163.5C 849.761,1168.36 851.761,1173.36 853.5,1178.5C 852.25,1178.42 851.417,1177.76 851,1176.5C 850.667,1176.83 850.333,1177.17 850,1177.5C 848.292,1175.46 846.292,1173.79 844,1172.5C 838.093,1162.76 831.593,1153.43 824.5,1144.5 Z"/></g>
</svg>
